<svg xmlns="http://www.w3.org/2000/svg" xmlns:xlink="http://www.w3.org/1999/xlink" width="169.942" height="201.751" viewBox="0 0 169.942 201.751">
  <defs>
    <linearGradient id="linear-gradient" y1="0.5" x2="1" y2="0.5" gradientUnits="objectBoundingBox">
      <stop offset="0" stop-color="#444b8c"/>
      <stop offset="0.996" stop-color="#26264f"/>
    </linearGradient>
    <linearGradient id="linear-gradient-2" x1="1.273" y1="0.478" x2="-1.156" y2="0.534" xlink:href="#linear-gradient"/>
    <linearGradient id="linear-gradient-5" x1="0.71" y1="-0.688" x2="0.533" y2="0.297" gradientUnits="objectBoundingBox">
      <stop offset="0" stop-color="#444b8c"/>
      <stop offset="0.484" stop-color="#35396e"/>
      <stop offset="0.996" stop-color="#26264f"/>
    </linearGradient>
    <linearGradient id="linear-gradient-6" x1="0.503" y1="0.675" x2="0.53" y2="2.074" xlink:href="#linear-gradient"/>
    <linearGradient id="linear-gradient-7" x1="0.454" y1="-0.411" x2="0.675" y2="4.024" gradientUnits="objectBoundingBox">
      <stop offset="0" stop-color="#ff9085"/>
      <stop offset="1" stop-color="#fb6fbb"/>
    </linearGradient>
    <linearGradient id="linear-gradient-8" x1="0" y1="0.5" x2="1" y2="0.5" xlink:href="#linear-gradient-7"/>
    <linearGradient id="linear-gradient-9" x1="1.644" y1="-0.256" x2="0.342" y2="0.629" xlink:href="#linear-gradient"/>
    <linearGradient id="linear-gradient-10" x1="-32.715" y1="-6.496" x2="-31.446" y2="3.973" gradientUnits="objectBoundingBox">
      <stop offset="0" stop-color="#311944"/>
      <stop offset="1" stop-color="#893976"/>
    </linearGradient>
    <linearGradient id="linear-gradient-11" x1="-108.864" y1="1.822" x2="-108.802" y2="-2.475" gradientUnits="objectBoundingBox">
      <stop offset="0" stop-color="#ffc444"/>
      <stop offset="0.996" stop-color="#f36f56"/>
    </linearGradient>
    <linearGradient id="linear-gradient-12" x1="-32.882" y1="-8.427" x2="-31.614" y2="2.043" xlink:href="#linear-gradient-10"/>
    <linearGradient id="linear-gradient-13" x1="-108.765" y1="0.757" x2="-108.704" y2="-3.54" xlink:href="#linear-gradient-11"/>
    <linearGradient id="linear-gradient-14" x1="-18.764" y1="0.468" x2="-17.827" y2="0.468" xlink:href="#linear-gradient"/>
    <linearGradient id="linear-gradient-15" x1="-20.723" y1="0.468" x2="-19.693" y2="0.468" xlink:href="#linear-gradient"/>
    <linearGradient id="linear-gradient-16" x1="-16.019" y1="0.457" x2="-14.81" y2="0.457" xlink:href="#linear-gradient"/>
    <linearGradient id="linear-gradient-17" x1="-68.22" y1="0.161" x2="-65.372" y2="1.92" xlink:href="#linear-gradient-11"/>
    <linearGradient id="linear-gradient-18" x1="0.116" y1="0.48" x2="0.92" y2="0.513" xlink:href="#linear-gradient-11"/>
    <linearGradient id="linear-gradient-19" x1="-5.718" y1="1.439" x2="-6.921" y2="0.206" xlink:href="#linear-gradient-11"/>
    <linearGradient id="linear-gradient-20" x1="-6.417" y1="1.52" x2="-7.745" y2="0.059" xlink:href="#linear-gradient-11"/>
    <linearGradient id="linear-gradient-21" x1="-36.894" y1="-0.67" x2="-35.892" y2="-0.67" xlink:href="#linear-gradient-11"/>
    <linearGradient id="linear-gradient-22" x1="-11.084" y1="1.508" x2="-13.276" y2="0.014" xlink:href="#linear-gradient-11"/>
    <linearGradient id="linear-gradient-23" x1="-31.375" y1="15.504" x2="-31.375" y2="14.107" xlink:href="#linear-gradient-11"/>
    <linearGradient id="linear-gradient-24" x1="-35.152" y1="1.462" x2="-35.869" y2="-0.124" gradientUnits="objectBoundingBox">
      <stop offset="0" stop-color="#444b8c"/>
      <stop offset="0.996" stop-color="#3e4177"/>
    </linearGradient>
    <linearGradient id="linear-gradient-25" x1="-81.086" y1="28.649" x2="-79.958" y2="26.273" xlink:href="#linear-gradient-11"/>
    <linearGradient id="linear-gradient-26" x1="-49.718" y1="-11.157" x2="-48.986" y2="-5.01" xlink:href="#linear-gradient-11"/>
    <linearGradient id="linear-gradient-27" x1="-11.044" y1="0.5" x2="-10.044" y2="0.5" gradientUnits="objectBoundingBox">
      <stop offset="0" stop-color="#aa80f9"/>
      <stop offset="0.996" stop-color="#6165d7"/>
    </linearGradient>
    <linearGradient id="linear-gradient-28" x1="-2.36" y1="0.557" x2="-1.364" y2="0.557" xlink:href="#linear-gradient"/>
    <linearGradient id="linear-gradient-29" x1="7.698" y1="1.395" x2="8.922" y2="-0.381" xlink:href="#linear-gradient-11"/>
    <linearGradient id="linear-gradient-30" x1="0.09" y1="0.844" x2="1.053" y2="0.844" xlink:href="#linear-gradient"/>
    <linearGradient id="linear-gradient-31" x1="-4.323" y1="1.81" x2="-3.311" y2="-0.068" xlink:href="#linear-gradient-11"/>
    <linearGradient id="linear-gradient-32" x1="1.099" y1="0.836" x2="0.299" y2="0.171" xlink:href="#linear-gradient-27"/>
    <linearGradient id="linear-gradient-33" x1="-0.506" y1="0.9" x2="-1.64" y2="0.251" xlink:href="#linear-gradient-27"/>
    <linearGradient id="linear-gradient-34" x1="0" y1="0.5" x2="1" y2="0.5" xlink:href="#linear-gradient-27"/>
    <linearGradient id="linear-gradient-35" x1="-0.918" y1="-0.283" x2="0.879" y2="0.78" xlink:href="#linear-gradient-27"/>
    <linearGradient id="linear-gradient-37" x1="2.565" y1="-0.873" x2="2.62" y2="-2.647" xlink:href="#linear-gradient-11"/>
    <linearGradient id="linear-gradient-38" x1="-4.321" y1="0.046" x2="-4.998" y2="-1.497" gradientUnits="objectBoundingBox">
      <stop offset="0" stop-color="#311944"/>
      <stop offset="1" stop-color="#6b3976"/>
    </linearGradient>
    <linearGradient id="linear-gradient-39" x1="-7.293" y1="-2.154" x2="-7.329" y2="1.009" xlink:href="#linear-gradient-11"/>
    <linearGradient id="linear-gradient-40" x1="-5.38" y1="-0.462" x2="-6.165" y2="-2.651" xlink:href="#linear-gradient-38"/>
    <linearGradient id="linear-gradient-41" x1="-30.89" y1="-26.79" x2="-30.705" y2="-22.218" gradientUnits="objectBoundingBox">
      <stop offset="0" stop-color="#ffc444"/>
      <stop offset="1" stop-color="#f36f56"/>
    </linearGradient>
    <linearGradient id="linear-gradient-42" x1="-14.383" y1="2.309" x2="-14.286" y2="1.469" xlink:href="#linear-gradient-7"/>
    <linearGradient id="linear-gradient-43" x1="-36.801" y1="0.265" x2="-35.877" y2="6.348" xlink:href="#linear-gradient-11"/>
    <linearGradient id="linear-gradient-44" x1="-23.869" y1="2.358" x2="-23.714" y2="1.492" xlink:href="#linear-gradient-7"/>
    <linearGradient id="linear-gradient-45" x1="2.628" y1="40.514" x2="1.774" y2="42.112" xlink:href="#linear-gradient"/>
    <linearGradient id="linear-gradient-46" x1="-30.465" y1="-17.613" x2="-30.944" y2="-18.474" gradientUnits="objectBoundingBox">
      <stop offset="0.004" stop-color="#e38ddd"/>
      <stop offset="1" stop-color="#9571f6"/>
    </linearGradient>
    <linearGradient id="linear-gradient-47" x1="4.049" y1="35.703" x2="3.196" y2="37.301" xlink:href="#linear-gradient"/>
    <linearGradient id="linear-gradient-48" x1="-29.044" y1="-22.425" x2="-29.523" y2="-23.285" xlink:href="#linear-gradient-46"/>
    <linearGradient id="linear-gradient-49" x1="1.052" y1="-0.028" x2="-1.092" y2="2.022" xlink:href="#linear-gradient-10"/>
    <linearGradient id="linear-gradient-50" x1="0.226" y1="0.07" x2="0.913" y2="1.148" xlink:href="#linear-gradient-46"/>
  </defs>
  <g id="bracelet" transform="translate(-465.907 -390.641)">
    <g id="Group_297" data-name="Group 297" transform="translate(486.839 400.76)">
      <g id="Group_296" data-name="Group 296" transform="translate(0 0)">
        <g id="Group_294" data-name="Group 294">
          <path id="Path_249" data-name="Path 249" d="M1205.138,816.648a16.711,16.711,0,0,1-8.888,3.449l-37,3.1a15.982,15.982,0,0,1-9.487-2.017,13.837,13.837,0,0,1-6.608-9.038,366.421,366.421,0,0,1-.653-151.75,14.889,14.889,0,0,1,7.869-10.2,16.631,16.631,0,0,1,8.261-1.816l38.206,1.454a16,16,0,0,1,7.741,2.327A318.769,318.769,0,0,0,1205.138,816.648Z" transform="translate(-1134.879 -648.366)" fill="url(#linear-gradient)"/>
          <path id="Path_250" data-name="Path 250" d="M1234.318,817.492a16.65,16.65,0,0,1-8.863,3.443l-36.9,3.091a15.918,15.918,0,0,1-9.46-2.016,13.818,13.818,0,0,1-6.589-9.026,366.415,366.415,0,0,1-.651-151.528,14.866,14.866,0,0,1,7.846-10.183,16.562,16.562,0,0,1,8.237-1.814l38.1,1.45a15.934,15.934,0,0,1,7.719,2.323A318.755,318.755,0,0,0,1234.318,817.492Z" transform="translate(-1162.115 -649.37)" fill="url(#linear-gradient-2)"/>
          <path id="Path_251" data-name="Path 251" d="M1428.572,807.9a16.271,16.271,0,0,1-6.04,9.585,16.65,16.65,0,0,1-8.863,3.443l-36.9,3.091a15.919,15.919,0,0,1-9.46-2.016c15.384-56.753,15.583-114.707.607-170.757a16.552,16.552,0,0,1,8.237-1.793l38.1,1.45a15.959,15.959,0,0,1,7.719,2.35,15.522,15.522,0,0,1,7.192,10.232A371.469,371.469,0,0,1,1428.572,807.9Z" transform="translate(-1350.329 -649.365)" fill="url(#linear-gradient)"/>
          <path id="Path_252" data-name="Path 252" d="M1370.177,832.721a338.639,338.639,0,0,0,.49-173.183,16.176,16.176,0,0,0-2.749,1.11c14.976,56.05,14.777,114.017-.607,170.771A15.089,15.089,0,0,0,1370.177,832.721Z" transform="translate(-1350.329 -658.722)" fill="url(#linear-gradient)"/>
        </g>
        <g id="Group_295" data-name="Group 295" transform="translate(6.153 37.756)">
          <path id="Path_253" data-name="Path 253" d="M1308.661,1177.6v73.861a12.715,12.715,0,0,1-11.9,12.5l-64.013,3.822a14.992,14.992,0,0,1-3.539-.208c-5.7-1.078-10.11-5.736-10.11-11.556v-78.705a11.358,11.358,0,0,1,1.194-4.633,13.258,13.258,0,0,1,12.427-7.553l63.99.75A11.863,11.863,0,0,1,1308.661,1177.6Z" transform="translate(-1219.096 -1165.122)" fill="url(#linear-gradient-5)"/>
          <path id="Path_254" data-name="Path 254" d="M1421.721,1252.614a12.62,12.62,0,0,1-11.789,12.443l-63.387,3.8c-7.257.434-13.083-4.8-13.083-11.706v-78.4c0-6.9,5.849-12.432,13.105-12.347l63.409.743a11.857,11.857,0,0,1,11.745,11.87Z" transform="translate(-1325.106 -1166.313)" fill="url(#linear-gradient-6)"/>
          <path id="Path_255" data-name="Path 255" d="M1455.551,1213.567a9.2,9.2,0,0,0-9.158-9.058l-63.575-.625a9.684,9.684,0,0,0-10.043,9.412v77.952c0,5.253,4.459,9.252,9.988,8.935l63.657-3.649a9.723,9.723,0,0,0,9.131-9.483Z" transform="translate(-1361.547 -1201.051)" fill="url(#linear-gradient-7)"/>
          <path id="Path_256" data-name="Path 256" d="M1479.443,1250.553a8.548,8.548,0,0,0-8.512-8.543l-59.956-.476c-5.2-.041-9.607,3.934-9.607,8.883v73.36c0,4.949,4.428,8.734,9.631,8.445l59.838-3.32a9.147,9.147,0,0,0,8.607-8.952Z" transform="translate(-1388.05 -1235.951)" opacity="0.2" fill="url(#linear-gradient-8)" style="mix-blend-mode: multiply;isolation: isolate"/>
          <path id="Path_257" data-name="Path 257" d="M1229.242,1362.019c-5.7-1.078-10.146-5.745-10.146-11.565v-78.706a11.868,11.868,0,0,1,1.194-4.743c1.672,3.069,3.141,7.774,2.395,14.648-1.6,14.709-.274,18.862,2.056,29.328,2.323,10.432-2.184,21.684-2.08,29.421C1222.747,1347.025,1220.664,1357.837,1229.242,1362.019Z" transform="translate(-1219.096 -1259.561)" opacity="0.3" fill="url(#linear-gradient-9)" style="mix-blend-mode: multiply;isolation: isolate"/>
        </g>
      </g>
      <path id="Path_258" data-name="Path 258" d="M1620.863,1562.422a16.8,16.8,0,0,0-4.948-11.906,17.273,17.273,0,0,0-12.015-5.112,16.94,16.94,0,0,0-11.323,4.015,17.717,17.717,0,0,0-11.145-4.15,17.341,17.341,0,0,0-11.973,4.431c-.134.119-.263.237-.392.361a16.674,16.674,0,0,0-.561,23.6l16.19,16a11.178,11.178,0,0,0,15.595-.023l15.6-15.378a.2.2,0,0,1,.029-.033c.057-.052.11-.108.163-.16l.53-.527-.019-.014A16.428,16.428,0,0,0,1620.863,1562.422ZM1610,1571.511l-8.125-.049c-.237,0-.464-.5-.653-.633l-3.452-2.654-2.364,3.658-6.26,9.684a1.058,1.058,0,0,1-.963.424,4.723,4.723,0,0,1-.635-.054c-.489-.14-1.144-.586-1.144-1.084V1561.34l-2.538,4.451-2.057,3.5c-.206.33-.426.608-.819.605l-14.28-.095a1.209,1.209,0,0,1,.021-2.415l13.672.1,1.776-2.77,5.035-7.864a1.054,1.054,0,0,1,1.214-.466,1.079,1.079,0,0,1,.763,1.084v19.473l4.07-6.25,3.191-4.919a1.136,1.136,0,0,1,.756-.5c.306-.059.632.358.884.537l4.136,3.267,7.769.055a1.191,1.191,0,0,1,1.119,1.193A1.171,1.171,0,0,1,1610,1571.511Z" transform="translate(-1532.545 -1479.736)" fill="#fff" opacity="0.7"/>
    </g>
    <g id="Group_299" data-name="Group 299" transform="translate(576.948 473.79)">
      <path id="Path_259" data-name="Path 259" d="M2630.168,3091.071a18.082,18.082,0,0,1,.25,2.372c-.037.623-6.947.941-7.017.475s1.143-1.208,2-1.47,3.351-.96,3.351-.96Z" transform="translate(-2604.751 -2985.63)" fill="url(#linear-gradient-10)"/>
      <path id="Path_260" data-name="Path 260" d="M2693.1,3066.288l.22,2.176a1.571,1.571,0,0,0,1.51.121l.354-2.368Z" transform="translate(-2669.363 -2962.591)" fill="url(#linear-gradient-11)"/>
      <path id="Path_261" data-name="Path 261" d="M2798.926,3129.9a18.049,18.049,0,0,1,.25,2.373c-.036.623-6.947.941-7.017.474s1.142-1.208,2-1.47,3.35-.96,3.35-.96Z" transform="translate(-2761.179 -3021.618)" fill="url(#linear-gradient-12)"/>
      <path id="Path_262" data-name="Path 262" d="M2861.86,3105.113l.221,2.176a1.571,1.571,0,0,0,1.51.121l.354-2.368Z" transform="translate(-2825.791 -2998.579)" fill="url(#linear-gradient-13)"/>
      <path id="Path_263" data-name="Path 263" d="M2669.48,2278l-2.4,4.858c-.643,9.242-.962,19.292-.757,30.04.153,8,.58,15.571,1.194,22.681l3.249-.149a32.407,32.407,0,0,0,3.585-13.63c.177-6.063-1.661-6.868-1.544-12.674.151-7.525,3.306-9.532,4.988-18.583a48.446,48.446,0,0,0,.561-13.468Z" transform="translate(-2644.486 -2231.109)" fill="url(#linear-gradient-14)"/>
      <path id="Path_264" data-name="Path 264" d="M2692.453,2277.078l-4.8.5c-2.878,5.007-3.681,10.219-3.176,12.525.715,3.261,2.6,4.307,2.5,7.581-.1,3.24-2.012,4.081-3.223,7.9-.838,2.644-.617,5.075-.14,9.83.96,9.577,3.273,12.506,1.336,15.646a7.069,7.069,0,0,1-3.485,2.766c.048.587.094,1.176.145,1.757l3.249-.149a32.416,32.416,0,0,0,3.585-13.631c.177-6.063-1.661-6.868-1.544-12.674.151-7.525,3.306-9.532,4.987-18.583A48.454,48.454,0,0,0,2692.453,2277.078Z" transform="translate(-2658.58 -2231.109)" opacity="0.3" fill="url(#linear-gradient-15)" style="mix-blend-mode: multiply;isolation: isolate"/>
      <path id="Path_265" data-name="Path 265" d="M2769.085,2300.606c1.5,8.177,2.824,16.928,3.857,26.208,1.248,11.206,1.914,21.771,2.176,31.579l3.566.1c4.685-9.267,4.971-15.55,4.3-19.64a59.121,59.121,0,0,1-1.128-9.286,65.276,65.276,0,0,1,.349-8.616c.563-6.459,1.246-7.869,1.344-12.809.092-4.636.111-6.982-1.212-8.352C2778.845,2296.184,2769.773,2300.287,2769.085,2300.606Z" transform="translate(-2739.794 -2250.795)" fill="url(#linear-gradient-16)"/>
      <path id="Path_266" data-name="Path 266" d="M2370.837,1827.464a4.393,4.393,0,0,1-.885-1.564c-.025-.391-.574.146-.186,1.021.117.263.095.365.033.444-.177.226-.784-.254-1.2-.028a1.172,1.172,0,0,0-.2,1.563c.275.325.7.087,1.182.319.389.186.292.654.479,1.848.386-.019,1.248.635,1.392.276A5.091,5.091,0,0,0,2370.837,1827.464Z" transform="translate(-2368.186 -1812.776)" fill="url(#linear-gradient-17)"/>
      <path id="Path_267" data-name="Path 267" d="M2376.665,1822.518l-2.372-.165c-1.865,7.536-.527,14.847,3.682,17.536,6.576,4.2,18.8-3.713,21.447-12.331,1.163-3.782.9-9.241-1.426-10.3-.645-.294-1.646-.34-3.814.877-6.476,3.635-6.646,10.507-9.938,11.089C2382.781,1829.481,2380.418,1828.548,2376.665,1822.518Z" transform="translate(-2373.084 -1804.722)" fill="url(#linear-gradient-18)"/>
      <path id="Path_268" data-name="Path 268" d="M2620.666,1848.027c-1.139-1.89.291-3.713.617-7.293.369-4.058-1.194-4.734-2.74-11.459-1.028-4.473-2.015-8.767-.837-13.793.565-2.409,1.522-6.495,4.9-8.468,1.745-1.018,4.127-.917,8.821-.671,5.8.3,8.707.455,10.871,1.595.317.167,6.9,3.748,7.355,9.586.461,5.942-6.01,6.74-6.873,14.664-.387,3.557.3,9.028.751,12.576.43,3.407.726,4.28.054,5.311-1.62,2.486-6.582,1.778-16.5.361C2623.191,1849.88,2621.515,1849.437,2620.666,1848.027Z" transform="translate(-2598.979 -1794.615)" fill="url(#linear-gradient-19)"/>
      <path id="Path_269" data-name="Path 269" d="M2674.643,1921.136c.42,1.544,1.929,2.7,2.979,6.454.227.811,1.842,6.587-.253,8.008-1.21.821-2.3-.735-5.234-.938-5.089-.352-7.514,3.926-10.839,2.758a4.554,4.554,0,0,1-2.1-1.628,3.362,3.362,0,0,0,.349,2.459c.85,1.41,2.525,1.853,6.417,2.409,9.922,1.417,14.884,2.126,16.5-.361.672-1.031.376-1.9-.054-5.311-.448-3.548-1.139-9.019-.751-12.576.863-7.924,7.333-8.722,6.873-14.664a9.215,9.215,0,0,0-1.489-4.234C2678.837,1906.835,2673.324,1916.283,2674.643,1921.136Z" transform="translate(-2637.858 -1884.838)" opacity="0.3" fill="url(#linear-gradient-20)" style="mix-blend-mode: multiply;isolation: isolate"/>
      <path id="Path_270" data-name="Path 270" d="M2933.649,2300.868l-1.643,1.049a3.844,3.844,0,0,0-2.043-1.262c-1.2-.264-2.58.115-2.612.5-.026.307.814.617.943.665,1.048.387,1.825.065,2.249.487a3.2,3.2,0,0,0,.766.683,2.233,2.233,0,0,0,.293.151c.7.272,1.9-.945,2-1.052Z" transform="translate(-2886.497 -2252.882)" fill="url(#linear-gradient-21)"/>
      <path id="Path_271" data-name="Path 271" d="M2931.366,1836.417c-1.188-2.845-2.011-7.2-.135-13.672,12.365,4.872,18.671,16.422,16.208,25.578-2.03,7.548-9.414,11.224-11.061,12l-1.15-2.617c1.909-2.126,4.06-5.269,3.756-8.856C2938.562,1843.875,2933.771,1842.178,2931.366,1836.417Z" transform="translate(-2889.065 -1809.971)" fill="url(#linear-gradient-22)"/>
      <path id="Path_272" data-name="Path 272" d="M2736.556,1728.306a13.237,13.237,0,0,0,.769,3.783c.607,1.464,3.8,2.384,4.445,2.711s-1.212,1.282-3.079,1.469-7.2-.236-8.159-.944.772-.655,2.1-1.144,2.1-3.095,1.868-4.278S2736.556,1728.306,2736.556,1728.306Z" transform="translate(-2703.8 -1722.432)" fill="url(#linear-gradient-23)"/>
      <path id="Path_273" data-name="Path 273" d="M2759.523,1653c-.969-.952-1.1-1.063-1.209-1.392a3.169,3.169,0,0,1,1.944-3.574c.07-.023.971-.311,1.315.08.292.332-.138.79.067,1.43.191.6.71.644,1.672,1.429.792.647,1.285,1.049,1.4,1.614a2.758,2.758,0,0,1-2.427,2.81C2761.834,1655.384,2761.711,1655.155,2759.523,1653Z" transform="translate(-2729.72 -1647.915)" fill="url(#linear-gradient-24)"/>
      <g id="Group_298" data-name="Group 298" transform="translate(28.917 4.247)">
        <path id="Path_274" data-name="Path 274" d="M2767.5,1709.461a2.752,2.752,0,0,1-2.6.781c-1.4-.345-1.046-3.568-.018-4.083a1.821,1.821,0,0,1,1.434.068c.276.134.354.272.81.481.421.193.554.166.667.3.142.17.2.535-.241,1.417a.786.786,0,0,1,.875-.124.493.493,0,0,1,.156.218C2768.715,1708.92,2768.3,1709.326,2767.5,1709.461Z" transform="translate(-2763.972 -1706.042)" fill="url(#linear-gradient-25)"/>
      </g>
    </g>
    <g id="Group_304" data-name="Group 304" transform="translate(465.907 479.594)">
      <path id="Path_275" data-name="Path 275" d="M1781.733,2069.415s.541-2.123,1.442-2.683,2.173-1.159,2.465-1.405.632.489-.208,1.052l-.84.563a.833.833,0,0,0,.034.361,1.265,1.265,0,0,0,1.148.723,9.185,9.185,0,0,0,3.328.377c.049-.014.236-.075.315.008.127.133-.1.557-.2.706-.583.891-2.608,1.279-4.125.582-.554-.254-.766-.528-1.17-.459-.642.109-1.036.956-1.269,1.657Z" transform="translate(-1713.54 -2040.589)" fill="url(#linear-gradient-26)"/>
      <path id="Path_276" data-name="Path 276" d="M1434.806,1904.392l-1.842-1.637a9.3,9.3,0,0,1-8.084,2.456c-3.155-.668-4.975-3.258-6.14-4.912-3.5-4.967-1.407-8.612-5.177-11.987-1.047-.937-3.1-2.072-4.443-1.726-3.2.824-5.04,10.444-1.945,18.011.625,1.527,4.066,9.937,11.871,10.848C1425.349,1916.181,1432.031,1911.74,1434.806,1904.392Z" transform="translate(-1364.874 -1874.893)" fill="#fff"/>
      <path id="Path_277" data-name="Path 277" d="M1409.838,1986.992c5.769,4.557,5.127,13.3,8.673,13.739,1.083.135,1.024-.695,3.607-1.535,3.779-1.229,5.554.012,8.213-.921a8.24,8.24,0,0,0,3.943-3.161l.534.474c-2.775,7.348-9.458,11.788-15.76,11.052-7.805-.911-11.246-9.32-11.871-10.848a23.17,23.17,0,0,1-1.466-10.886A12.035,12.035,0,0,1,1409.838,1986.992Z" transform="translate(-1364.875 -1966.089)" opacity="0.15" fill="url(#linear-gradient-27)" style="mix-blend-mode: multiply;isolation: isolate"/>
      <path id="Path_278" data-name="Path 278" d="M1208.232,3231.909c-.336.274-.4.957-.439,1.4a1.1,1.1,0,0,0-.005.37c.163.514,1.159.568,2.722.728,2.47.252,3.2.447,3.4.079.181-.344-.257-.908-.307-.97a2.263,2.263,0,0,0-1.221-.663c-1.165-.384-1.953-.594-2.191-.657C1208.7,3231.8,1208.453,3231.729,1208.232,3231.909Z" transform="translate(-1181.517 -3121.895)" fill="url(#linear-gradient-28)"/>
      <path id="Path_279" data-name="Path 279" d="M1209.277,3202.209l.247,2.815a1.528,1.528,0,0,1-1.571.194l-.635-2.767Z" transform="translate(-1181.093 -3094.452)" fill="url(#linear-gradient-29)"/>
      <path id="Path_280" data-name="Path 280" d="M1504.957,3210.808a1.39,1.39,0,0,0-.145,1.67c.345.4.863.1,2.333.143,1.575.047,1.986.419,3.056.124.432-.119,1.2-.409,1.181-.718-.01-.217-.4-.329-1.7-.764a16.858,16.858,0,0,0-2.226-.716C1506.477,3210.384,1505.49,3210.22,1504.957,3210.808Z" transform="translate(-1456.651 -3102.039)" fill="url(#linear-gradient-30)"/>
      <path id="Path_281" data-name="Path 281" d="M1498.809,3180.9l.79,2.627a1.529,1.529,0,0,1-1.552.313l-1.173-2.55Z" transform="translate(-1449.494 -3074.7)" fill="url(#linear-gradient-31)"/>
      <path id="Path_282" data-name="Path 282" d="M1249.646,2393.281a246.172,246.172,0,0,0,7.777,58.311l-3.023.813a25.644,25.644,0,0,1-7.339-11.441c-.966-3.292-.644-4.983-1.257-9.032-.976-6.447-2.952-9.824-4.994-15.022a85.519,85.519,0,0,1-5.168-20.691Z" transform="translate(-1207.349 -2344.626)" fill="url(#linear-gradient-32)"/>
      <path id="Path_283" data-name="Path 283" d="M1080.2,2393.321q-.925,16.846-1.508,34.313-.433,13.1-.641,25.874l-3.088.381a35.964,35.964,0,0,1-3.221-8.313c-1.1-4.408-.845-7.025-1.327-11.593-.541-5.124-1.327-6.24-2.719-12.7-2.825-13.117-4.237-19.676-1.086-23.755C1067.636,2396.2,1070.843,2392.878,1080.2,2393.321Z" transform="translate(-1049.007 -2344.626)" fill="url(#linear-gradient-33)"/>
      <path id="Path_284" data-name="Path 284" d="M1107.277,1861.74a47.95,47.95,0,0,1,10.271-1.715c6.172-.349,9.258-.523,11.444.946,5.051,3.395,1.141,11.229,3.208,30.65.879,8.254,1.275,7.72-.705,10.658-4.023,5.969-15.324,6.458-20.5,1.283-2.736-2.735-3.089-2.889-3.155-6.01C1107.579,1885.232,1107.383,1873.6,1107.277,1861.74Z" transform="translate(-1088.362 -1850.107)" fill="url(#linear-gradient-34)"/>
      <path id="Path_285" data-name="Path 285" d="M1310.356,1863.807a18.281,18.281,0,0,0-7.872-1.995,66.61,66.61,0,0,0-4.353,16.573c-.819,6.421-.436,10.67,0,19.491.277,5.573.559,13.648.474,23.6a14.1,14.1,0,0,0,4.021.694c3.3.074,4.406-1.119,7.78-.789,1.472.144,1.838.427,2.333.1,1.38-.92.347-4.333-.346-8.039-1.071-5.73.1-4.551-.951-13.83-.867-7.693-2.063-12.005-.951-12.447C1311.092,1886.921,1311.654,1864.474,1310.356,1863.807Z" transform="translate(-1264.826 -1851.988)" fill="#fff"/>
      <path id="Path_286" data-name="Path 286" d="M1307.123,1900.643c.043-5.788,3.127-6.607,2.817-11.586-.312-5.015-3.51-5.29-3.4-9.606.134-5.249,4.916-6.906,4.729-11.675a8.252,8.252,0,0,0-1.467-4.227,18.4,18.4,0,0,0-7.319-1.736,66.61,66.61,0,0,0-4.353,16.573c-.819,6.421-.436,10.67,0,19.491.277,5.573.559,13.648.474,23.6a14.1,14.1,0,0,0,4.021.694c3.3.074,4.406-1.119,7.78-.789,1.472.144,1.838.427,2.333.1,1.206-.8.569-3.511-.073-6.654a23.38,23.38,0,0,1-3.172-4.927A20.9,20.9,0,0,1,1307.123,1900.643Z" transform="translate(-1264.826 -1851.988)" opacity="0.15" fill="url(#linear-gradient-35)" style="mix-blend-mode: multiply;isolation: isolate"/>
      <path id="Path_287" data-name="Path 287" d="M966.241,1892.167a22.963,22.963,0,0,1,.6,7.261c-.444,11.611-.67,17.45-.864,19.1-.944,8.027-1.611,7.527-1.382,10.787.123,1.745.409,3.239-.546,4.337-1.139,1.31-2.777.6-6.808,1.121-3.706.478-3.8,1.268-7.808,1.749-1.627.2-6.071.73-6.535-.534-.248-.676.671-1.785,1.556-2.334,1.442-.894,2.672-.22,3.158-.933.558-.817-.949-1.861-1-3.822s1.406-2.59,2.31-4.99a11.082,11.082,0,0,0,.373-5.488c-.579-6.014,2.068-10.771,2.59-18.739.814-12.408-4.492-17.859-.891-21.834,1.95-2.153,5.159-2.381,7.166-2.332,2.085,4.343,3.88,7.76,5.152,10.107A27.118,27.118,0,0,1,966.241,1892.167Z" transform="translate(-935.958 -1864.691)" fill="#fff"/>
      <g id="Group_300" data-name="Group 300" transform="translate(32.827 9.824)">
        <path id="Path_288" data-name="Path 288" d="M1303.214,1876.267c-.3-1.02-1.231-2-.864-3.2a2.717,2.717,0,0,1,1.221-1.441,5.8,5.8,0,0,0,4.527-6.165,5.615,5.615,0,0,0-1.286-3.029,18.551,18.551,0,0,0-4.3-.622,66.616,66.616,0,0,0-4.353,16.573,58.442,58.442,0,0,0-.475,8.35,10.79,10.79,0,0,1,1.941-3.685C1300.878,1881.521,1303.935,1878.749,1303.214,1876.267Z" transform="translate(-1297.676 -1861.812)" fill="#fff"/>
      </g>
      <g id="Group_301" data-name="Group 301" transform="translate(13.86 10.825)" opacity="0.64" style="mix-blend-mode: multiply;isolation: isolate">
        <path id="Path_289" data-name="Path 289" d="M1054.51,1892.17a27.112,27.112,0,0,0-2.922-6.539c-1.271-2.347-3.067-5.764-5.152-10.107-.487-.012-1.045-.007-1.638.038-3.174,4.383-3.375,6.834-2.638,8.288.719,1.417,2.221,1.693,2.417,3.223.307,2.392-3.174,3.21-4.028,6.445-.746,2.824,1,5.645,2.64,8.3,2.792,4.516,5.349,5.073,5.255,7.491-.1,2.516-2.891,2.56-4.029,5.64-1.783,4.827,3.757,8.3,2.095,12.568-1.288,3.31-5.18,2.674-7.573,6.929a9.863,9.863,0,0,0-.851,2.033c3.623-.485,3.846-1.237,7.427-1.7,4.031-.52,5.669.189,6.808-1.121.955-1.1.669-2.592.546-4.337-.229-3.26.438-2.76,1.382-10.787.195-1.653.42-7.492.865-19.1A22.961,22.961,0,0,0,1054.51,1892.17Z" transform="translate(-1038.088 -1875.518)" opacity="0.3" fill="url(#linear-gradient-34)" style="mix-blend-mode: multiply;isolation: isolate"/>
      </g>
      <path id="Path_290" data-name="Path 290" d="M1089.852,1885.47c1.637,1.455,2.821,1.946,3.026,3.334.225,1.529-1.048,2.04-.832,3.529.271,1.862,2.381,1.866,3.468,4.245.712,1.558.091,2.176.519,4.192a10.208,10.208,0,0,0,2.658,4.843c.072-1.847.151-3.9.238-6.182a22.964,22.964,0,0,0-.605-7.261,27.126,27.126,0,0,0-2.922-6.539c-1.271-2.347-3.067-5.764-5.152-10.107a12.979,12.979,0,0,0-4.271.535,4.684,4.684,0,0,0-.621,2.109C1085.24,1881.371,1088.76,1884.5,1089.852,1885.47Z" transform="translate(-1068.041 -1864.693)" fill="#fff"/>
      <g id="Group_303" data-name="Group 303" transform="translate(23.643 0)">
        <path id="Path_291" data-name="Path 291" d="M1177.99,1770.8a21.367,21.367,0,0,1-.382,4.274,3.309,3.309,0,0,1-.584,1.672c-.306.359-.77.66-3.392,1.311-1.427.354-1.61.344-1.642.486-.154.691,3.737,3.045,7.756,2.477,2.46-.347,4.7-1.751,4.561-2.488s-2.6-.344-3.328-1.685c-.51-.934.062-2.259.737-3.356C1181.062,1772.264,1178.644,1772.024,1177.99,1770.8Z" transform="translate(-1171.986 -1767.625)" fill="url(#linear-gradient-37)"/>
        <g id="Group_302" data-name="Group 302" transform="translate(4.142)">
          <path id="Path_292" data-name="Path 292" d="M1235.109,1731.252a2.588,2.588,0,0,0-.052-2.969,2.82,2.82,0,0,0-2.024-.9c-1.572-.181-3.554.475-4.244,1.921-.409.857.475,2.638.614,2.958.157.362.441.486.7.76.365.38.935.983,1.866,1.993a6.461,6.461,0,0,1,.357-1.066,5.711,5.711,0,0,1,.746-1.253C1233.895,1731.7,1234.559,1731.983,1235.109,1731.252Z" transform="translate(-1228.682 -1727.354)" fill="url(#linear-gradient-38)"/>
          <path id="Path_293" data-name="Path 293" d="M1239.964,1771.326a3.511,3.511,0,0,0,3.09,1.561c1.842-.12,2.112-4.25.935-5.126a2.325,2.325,0,0,0-1.818-.235c-.377.106-.505.263-1.125.423-.572.149-.734.085-.906.23-.216.182-.374.628-.013,1.835a1,1,0,0,0-1.072-.351.629.629,0,0,0-.245.239C1238.552,1770.374,1238.982,1770.977,1239.964,1771.326Z" transform="translate(-1238.001 -1764.514)" fill="url(#linear-gradient-39)"/>
          <path id="Path_294" data-name="Path 294" d="M1241.168,1774.032c.089.066-.183.4-.2.867a2.254,2.254,0,0,0,1.822,2.1c.556.055.708-.28,1.627-.377a4.205,4.205,0,0,1,1.34.077,2.215,2.215,0,0,1-.65,2.456,2.306,2.306,0,0,1-2.02.069,2.634,2.634,0,0,1-1.509-1.107c-.448-.786-.009-1.26-.522-1.792-.259-.268-.6-.384-.931-.9a2.531,2.531,0,0,1-.187-.35C1240.41,1774.564,1241.04,1773.936,1241.168,1774.032Z" transform="translate(-1239.113 -1770.612)" fill="url(#linear-gradient-40)"/>
          <path id="Path_295" data-name="Path 295" d="M1295.722,1815.555a2.243,2.243,0,0,1-1.085.169c-.033,0-.07.008-.074.025a.845.845,0,0,0,.831.243c.289-.081.513-.354.474-.424C1295.852,1815.54,1295.786,1815.544,1295.722,1815.555Z" transform="translate(-1289.749 -1809.103)" fill="url(#linear-gradient-41)"/>
        </g>
      </g>
      <path id="Path_296" data-name="Path 296" d="M871.528,1901.414c1.05,2.23-3.775,7.424-9.139,9.89-1.093.5-8.94,4.111-12.437.641-2.89-2.867-1.025-8.8-.359-10.912,3.27-10.393,12.522-16.218,16.73-18.125,3.141,7.853,2.08,11.89,1.352,12.983a41.862,41.862,0,0,1-5.137,5.651c-1.586,1.485-2.573,2.208-2.44,2.44.165.288,2.024-.256,9.243-3.77A2.809,2.809,0,0,1,871.528,1901.414Z" transform="translate(-848.385 -1871.544)" fill="#fff"/>
      <path id="Path_297" data-name="Path 297" d="M1179.362,1957.761l-12.778,1.2a.653.653,0,0,0-.567.47l-4.769,16.651a.654.654,0,0,0,.686.831l12.883-1.137a.654.654,0,0,0,.572-.475l4.663-16.711A.653.653,0,0,0,1179.362,1957.761Z" transform="translate(-1138.366 -1940.924)" fill="url(#linear-gradient-42)"/>
      <path id="Path_298" data-name="Path 298" d="M1139.919,2062.677s4.4-4.5,6.192-5.168.205,4.084-.844,4.754a4.913,4.913,0,0,1-2.277,1.028l-.819.1-1.074.573S1139.714,2063.8,1139.919,2062.677Z" transform="translate(-1118.599 -2033.328)" fill="url(#linear-gradient-43)"/>
      <path id="Path_299" data-name="Path 299" d="M1260.326,1972.163c.482-2.632-1-4.673.42-7.14,1.464-2.538,4.034-2.11,5.88-4.2a6.075,6.075,0,0,0,1.374-2.984l.831-.078a.653.653,0,0,1,.69.826l-4.663,16.711a.654.654,0,0,1-.572.475l-6.542.577A7.42,7.42,0,0,0,1260.326,1972.163Z" transform="translate(-1227.834 -1940.924)" opacity="0.3" fill="url(#linear-gradient-44)" style="mix-blend-mode: multiply;isolation: isolate"/>
    </g>
    <g id="Group_309" data-name="Group 309" transform="translate(598.768 433.917)">
      <g id="Group_305" data-name="Group 305" transform="translate(0 0.694)">
        <path id="Path_300" data-name="Path 300" d="M2671.383,1115.218c5.917-5.147,15.211-4.6,20.767.991a13.186,13.186,0,0,1,0,19.054c-5.555,5.286-14.849,5.328-20.767-.142C2665.318,1129.516,2665.318,1120.493,2671.383,1115.218Z" transform="translate(-2666.834 -1111.667)" fill="url(#linear-gradient-45)"/>
      </g>
      <g id="Group_306" data-name="Group 306" transform="translate(0.627 0)">
        <path id="Path_301" data-name="Path 301" d="M2679.969,1105.725c5.918-5.147,15.212-4.6,20.767.991a13.186,13.186,0,0,1,0,19.054c-5.555,5.287-14.849,5.328-20.767-.141C2673.9,1120.023,2673.9,1111,2679.969,1105.725Z" transform="translate(-2675.421 -1102.174)" fill="url(#linear-gradient-46)"/>
      </g>
      <g id="Group_307" data-name="Group 307" transform="translate(2.777 2.016)" opacity="0.5" style="mix-blend-mode: soft-light;isolation: isolate">
        <path id="Path_302" data-name="Path 302" d="M2708.719,1132.793a13.171,13.171,0,0,1,17.729.846,11.258,11.258,0,0,1,0,16.267,13.133,13.133,0,0,1-17.729-.121C2703.542,1145,2703.542,1137.3,2708.719,1132.793Z" transform="translate(-2704.836 -1129.761)" fill="#fff"/>
      </g>
      <path id="Path_303" data-name="Path 303" d="M2724.681,1133.821a13.17,13.17,0,0,1,17.729.846,11.358,11.358,0,0,1,2.156,13.452,11.314,11.314,0,0,0-1.529-14.48,13.171,13.171,0,0,0-17.729-.846,11.418,11.418,0,0,0-2.576,3.208A11.567,11.567,0,0,1,2724.681,1133.821Z" transform="translate(-2718.648 -1127.746)" fill="#fff" opacity="0.3" style="mix-blend-mode: soft-light;isolation: isolate"/>
      <g id="Group_308" data-name="Group 308" transform="translate(6.212 7.596)">
        <path id="Path_304" data-name="Path 304" d="M2854.3,1363.491a1.542,1.542,0,1,1-1.542-1.542A1.542,1.542,0,0,1,2854.3,1363.491Z" transform="translate(-2843.954 -1350.565)" fill="#fff"/>
        <path id="Path_305" data-name="Path 305" d="M2760.658,1206.144a12.873,12.873,0,0,0-8.432,3.129,1.052,1.052,0,0,0-.064,1.541l.044.043a1.043,1.043,0,0,0,1.418.057,10.761,10.761,0,0,1,14.068,0,1.043,1.043,0,0,0,1.418-.057l.043-.043a1.051,1.051,0,0,0-.064-1.541A12.874,12.874,0,0,0,2760.658,1206.144Z" transform="translate(-2751.857 -1206.144)" fill="#fff"/>
        <path id="Path_306" data-name="Path 306" d="M2792.976,1255.286a9.29,9.29,0,0,0-5.872,2.081,1.046,1.046,0,0,0-.073,1.549l.008.007a1.054,1.054,0,0,0,1.411.064,7.221,7.221,0,0,1,9.055,0,1.054,1.054,0,0,0,1.411-.064l.008-.007a1.046,1.046,0,0,0-.073-1.549A9.292,9.292,0,0,0,2792.976,1255.286Z" transform="translate(-2784.175 -1251.696)" fill="#fff"/>
        <path id="Path_307" data-name="Path 307" d="M2822.14,1307.036a1.124,1.124,0,0,0,1.416.129,3.593,3.593,0,0,1,3.922,0,1.124,1.124,0,0,0,1.416-.129l0,0a1.049,1.049,0,0,0-.151-1.608,5.74,5.74,0,0,0-6.462,0,1.049,1.049,0,0,0-.151,1.608Z" transform="translate(-2816.716 -1297.247)" fill="#fff"/>
      </g>
    </g>
    <g id="Group_314" data-name="Group 314" transform="translate(577.734 390.641)">
      <g id="Group_310" data-name="Group 310" transform="translate(0 0.826)">
        <path id="Path_308" data-name="Path 308" d="M2384.361,525.4c7.049-6.131,18.12-5.478,24.737,1.181,6.463,6.5,6.463,16.546,0,22.7-6.617,6.3-17.688,6.347-24.737-.168C2377.137,542.432,2377.137,531.684,2384.361,525.4Z" transform="translate(-2378.943 -521.17)" fill="url(#linear-gradient-47)"/>
      </g>
      <g id="Group_311" data-name="Group 311" transform="translate(0.747 0)">
        <path id="Path_309" data-name="Path 309" d="M2394.59,514.093c7.048-6.131,18.12-5.478,24.737,1.181,6.463,6.5,6.463,16.546,0,22.7-6.617,6.3-17.688,6.347-24.737-.168C2387.366,531.124,2387.366,520.377,2394.59,514.093Z" transform="translate(-2389.172 -509.863)" fill="url(#linear-gradient-48)"/>
      </g>
      <g id="Group_312" data-name="Group 312" transform="translate(3.307 2.401)" opacity="0.5" style="mix-blend-mode: soft-light;isolation: isolate">
        <path id="Path_310" data-name="Path 310" d="M2428.836,546.335c6.018-5.234,15.469-4.676,21.118,1.008a13.409,13.409,0,0,1,0,19.377c-5.649,5.376-15.1,5.419-21.118-.144C2422.668,560.875,2422.668,551.7,2428.836,546.335Z" transform="translate(-2424.21 -542.724)" fill="#fff"/>
      </g>
      <path id="Path_311" data-name="Path 311" d="M2447.848,547.559c6.017-5.234,15.469-4.676,21.118,1.008a13.53,13.53,0,0,1,2.568,16.024,13.477,13.477,0,0,0-1.821-17.248c-5.649-5.684-15.1-6.242-21.119-1.008a13.6,13.6,0,0,0-3.068,3.822A13.794,13.794,0,0,1,2447.848,547.559Z" transform="translate(-2440.662 -540.323)" fill="#fff" opacity="0.3" style="mix-blend-mode: soft-light;isolation: isolate"/>
      <g id="Group_313" data-name="Group 313" transform="translate(7.07 10.338)">
        <path id="Path_312" data-name="Path 312" d="M2536.645,653.2a2.1,2.1,0,0,0-1.98,2.157l-.01,9.6a2.021,2.021,0,0,0,1.969,2.1,2.087,2.087,0,0,0,1.976-2.141l.02-9.609A2.025,2.025,0,0,0,2536.645,653.2Z" transform="translate(-2530.348 -653.063)" fill="#fff"/>
        <path id="Path_313" data-name="Path 313" d="M2478.081,681.722l.016,0a1.414,1.414,0,0,0-1.32,1.49v2.412l-.3.01a.839.839,0,0,0-.77.916v.046a.8.8,0,0,0,.77.883l.3-.01v2.592a1.388,1.388,0,0,0,1.349,1.446l-.048-.007a1.387,1.387,0,0,0,1.286-1.486l.006-6.851A1.335,1.335,0,0,0,2478.081,681.722Z" transform="translate(-2475.705 -679.503)" fill="#fff"/>
        <path id="Path_314" data-name="Path 314" d="M2673.337,651.362a2.083,2.083,0,0,0-1.955,2.162l-.034,9.619a1.988,1.988,0,0,0,1.933,2.1,2.071,2.071,0,0,0,1.951-2.148l.043-9.624A1.992,1.992,0,0,0,2673.337,651.362Z" transform="translate(-2657.053 -651.362)" fill="#fff"/>
        <path id="Path_315" data-name="Path 315" d="M2733.945,682.391l-.233.017.013-2.42a1.407,1.407,0,0,0-1.375-1.457h-.033a1.463,1.463,0,0,0-1.383,1.49l-.032,6.869a1.391,1.391,0,0,0,1.356,1.451l.041,0a1.462,1.462,0,0,0,1.389-1.482l.014-2.6.233-.017c.462-.006.706-.427.709-.925v-.046C2734.647,682.772,2734.407,682.385,2733.945,682.391Z" transform="translate(-2712.257 -676.544)" fill="#fff"/>
        <path id="Path_316" data-name="Path 316" d="M2594.8,730.639l5.152-.062.01-2.774-5.155.065Z" transform="translate(-2586.102 -722.217)" fill="#fff"/>
      </g>
    </g>
    <g id="Group_319" data-name="Group 319" transform="translate(536.325 396.921)">
      <g id="Group_315" data-name="Group 315" transform="translate(0 1.254)">
        <path id="Path_317" data-name="Path 317" d="M1837.945,617.625a14.681,14.681,0,0,1,0,20.744,15.179,15.179,0,0,1-21.251-.188,14.656,14.656,0,0,1,0-21.164A15.193,15.193,0,0,1,1837.945,617.625Z" transform="translate(-1812.179 -612.976)" fill="url(#linear-gradient-49)"/>
      </g>
      <g id="Group_316" data-name="Group 316" transform="translate(1.039 0)">
        <path id="Path_318" data-name="Path 318" d="M1852.164,600.463a14.682,14.682,0,0,1,0,20.744,15.179,15.179,0,0,1-21.251-.188,14.657,14.657,0,0,1,0-21.164A15.193,15.193,0,0,1,1852.164,600.463Z" transform="translate(-1826.398 -595.814)" fill="url(#linear-gradient-50)"/>
      </g>
      <g id="Group_317" data-name="Group 317" transform="translate(3.955 2.876)" opacity="0.5" style="mix-blend-mode: soft-light;isolation: isolate">
        <path id="Path_319" data-name="Path 319" d="M1887.081,638.922a11.833,11.833,0,0,1,0,16.718,12.233,12.233,0,0,1-17.127-.151,11.812,11.812,0,0,1,0-17.057A12.245,12.245,0,0,1,1887.081,638.922Z" transform="translate(-1866.315 -635.176)" fill="#fff"/>
      </g>
      <path id="Path_320" data-name="Path 320" d="M1931.6,638.921a12.245,12.245,0,0,0-17.127-.49c-.045.042-.086.087-.13.13a12.3,12.3,0,0,1,15.463,1.8,11.833,11.833,0,0,1,0,16.718l-.04.038a11.746,11.746,0,0,0,1.833-18.2Z" transform="translate(-1906.883 -632.299)" fill="#fff" opacity="0.5" style="mix-blend-mode: soft-light;isolation: isolate"/>
      <g id="Group_318" data-name="Group 318" transform="translate(9.087 7.98)">
        <path id="Path_321" data-name="Path 321" d="M2101.743,736.041l2.233.028V723.792l-2.233-.053Z" transform="translate(-2089.673 -722.372)" fill="#fff"/>
        <path id="Path_322" data-name="Path 322" d="M2047.1,813.106l2.25.028v-6.161l-2.25-.041Z" transform="translate(-2039.019 -799.487)" fill="#fff"/>
        <path id="Path_323" data-name="Path 323" d="M1992.031,718.6l2.267.028V705.09l-2.267-.057Z" transform="translate(-1987.978 -705.033)" fill="#fff"/>
        <path id="Path_324" data-name="Path 324" d="M1936.549,742.9l2.284.028V731.35l-2.284-.053Z" transform="translate(-1936.549 -729.378)" fill="#fff"/>
      </g>
    </g>
  </g>
</svg>
