<svg xmlns="http://www.w3.org/2000/svg" width="38.589" height="24.809" viewBox="0 0 38.589 24.809">
  <path id="braceletSelected" d="M33.294,31.854c-10.438,0-18.435,2.758-19.225,6.51a2.636,2.636,0,0,0-.069.613v9.076c0,3.258,6.011,6.722,17.5,7.093l1.32,1.319a.675.675,0,0,0,.955,0l1.32-1.319c11.486-.37,17.5-3.834,17.5-7.093V38.977C52.589,34.916,44.294,31.854,33.294,31.854Zm-17.944,16.2V41.67a8.54,8.54,0,0,0,1.386,1.042.663.663,0,0,0,.205.12,25.571,25.571,0,0,0,8.971,2.748,3.82,3.82,0,0,0-.485,1.684,34.7,34.7,0,0,1-6.089-1.448c-.458-.159-.9-.327-1.317-.5A.675.675,0,0,0,17.5,46.56c.441.184.911.363,1.4.531a36.582,36.582,0,0,0,6.708,1.562,3.841,3.841,0,0,0,.943,1.544l.089.089a27.3,27.3,0,0,1-5.923-1.459.675.675,0,1,0-.486,1.26,30.932,30.932,0,0,0,7.96,1.752l1.893,1.893c-9.146-.544-14.731-3.277-14.731-5.676ZM39.6,44.364a3.85,3.85,0,0,0-5.008.367c-.859.02-1.733.021-2.592,0a3.849,3.849,0,0,0-5.008-.367A29.392,29.392,0,0,1,18.631,42.2c3.392-1.586,8.841-2.547,14.664-2.547s11.273.963,14.664,2.547A29.392,29.392,0,0,1,39.6,44.364Zm-6.3,10.669L27.5,49.242a2.51,2.51,0,0,1,3.55-3.55l1.765,1.765a.675.675,0,0,0,.955,0L35.3,45.926a.68.68,0,0,0,.1-.1l.131-.131a2.51,2.51,0,1,1,3.55,3.55Zm17.944-6.98c0,2.4-5.585,5.132-14.731,5.676L38.4,51.838a30.932,30.932,0,0,0,7.96-1.752.675.675,0,1,0-.486-1.26,27.3,27.3,0,0,1-5.923,1.461l.089-.089a3.841,3.841,0,0,0,.943-1.544,36.581,36.581,0,0,0,6.708-1.562c.485-.168.954-.347,1.4-.531a.675.675,0,0,0-.521-1.246c-.415.174-.858.342-1.317.5a34.7,34.7,0,0,1-6.089,1.448,3.82,3.82,0,0,0-.485-1.684,25.545,25.545,0,0,0,8.983-2.754.68.68,0,0,0,.188-.109,8.58,8.58,0,0,0,1.392-1.047ZM49.4,41.417C45.868,39.462,39.9,38.3,33.294,38.3s-12.574,1.162-16.1,3.116c-1.175-.764-1.841-1.6-1.841-2.441,0-1.372,1.869-2.838,5-3.922A41.13,41.13,0,0,1,33.294,33.2a41.052,41.052,0,0,1,12.945,1.852c3.13,1.084,5,2.55,5,3.922,0,.842-.665,1.678-1.841,2.442Z" transform="translate(-14 -31.854)" fill="#6dcae7"/>
</svg>
