<svg xmlns="http://www.w3.org/2000/svg" xmlns:xlink="http://www.w3.org/1999/xlink" width="162.223" height="188.828" viewBox="0 0 162.223 188.828">
  <defs>
    <clipPath id="clip-path">
      <path id="Path_138" data-name="Path 138" d="M671.257,220.384c-19.614-47.918-83.216-57.074-115.887-16.907C543.4,218.188,534.6,236.607,541.1,255.6c15.2,44.386-23.041,49.508-3.585,88.218,19.235,38.267,119.039,27.125,136.152-18.414,7-18.628,20.961-40.36,15.917-69.273C687.961,246.809,674.761,228.946,671.257,220.384Z" fill="none"/>
    </clipPath>
  </defs>
  <g id="login" transform="translate(-528.439 -178.18)">
    <g id="Group_30" data-name="Group 30">
      <path id="Path_46" data-name="Path 46" d="M571.627,204.793s-36.668,7.391-21.8,50.809c15.2,44.386-31.767,49.508-12.311,88.218,19.235,38.267,119.039,27.125,136.152-18.414S641.576,194.981,571.627,204.793Z" fill="#6dcae7" opacity="0.5"/>
      <path id="Path_47" data-name="Path 47" d="M544.5,262.828a9.781,9.781,0,0,0-12.373,3.722c-2.836,4.464-5.742,11.906-1.688,20.43,6.59,13.855,21.852-4.36,19.6-16.211C549.2,266.325,546.966,264,544.5,262.828Z" fill="#6dcae7" opacity="0.5"/>
    </g>
    <g id="Group_245" data-name="Group 245">
      <g id="Group_244" data-name="Group 244" clip-path="url(#clip-path)">
        <g id="Group_243" data-name="Group 243">
          <g id="Group_147" data-name="Group 147">
            <g id="Group_48" data-name="Group 48">
              <g id="Group_32" data-name="Group 32">
                <g id="Group_31" data-name="Group 31">
                  <path id="Path_48" data-name="Path 48" d="M648.381,522.594l7.455,30.685,11.889-.685L666,516.662Z" fill="#dd706b"/>
                </g>
              </g>
              <g id="Group_41" data-name="Group 41">
                <g id="Group_34" data-name="Group 34">
                  <g id="Group_33" data-name="Group 33">
                    <path id="Path_49" data-name="Path 49" d="M664.179,551.488s.91-7.395,3.3-6.6,6.5,9.778,6.5,9.778,12.979,4.163,16.485,4.382,6.572,2.191,7.887,8.983h-42.5s-1.673-15.337-1.932-17.965,3.9.657,3.9.657Z" fill="#f6f6f6"/>
                  </g>
                </g>
                <g id="Group_37" data-name="Group 37">
                  <g id="Group_36" data-name="Group 36">
                    <g id="Group_35" data-name="Group 35">
                      <path id="Path_50" data-name="Path 50" d="M654.749,555.935c3.182,1.81,5.027,5.369,3.438,8.9-.2.447.461.839.664.388,1.762-3.912-.133-7.914-3.714-9.95a.385.385,0,0,0-.388.664Z" fill="#2c2d40"/>
                    </g>
                  </g>
                </g>
                <g id="Group_40" data-name="Group 40">
                  <g id="Group_39" data-name="Group 39">
                    <g id="Group_38" data-name="Group 38">
                      <path id="Path_51" data-name="Path 51" d="M655.948,565.637l33.465.349,7.682.08a.385.385,0,0,0,0-.769l-33.464-.349-7.683-.08a.385.385,0,0,0,0,.769Z" fill="#2c2d40"/>
                    </g>
                  </g>
                </g>
              </g>
              <g id="Group_43" data-name="Group 43">
                <g id="Group_42" data-name="Group 42">
                  <path id="Path_52" data-name="Path 52" d="M647.791,339.835s14.126,66.3,19.669,86.381S673.671,529.7,673.671,529.7l-31.014,3.087s-7.544-83.07-10.889-94.106c-3.855-12.725-28.956-89.072-28.956-89.072Z" fill="#96b7fc"/>
                </g>
              </g>
              <g id="Group_45" data-name="Group 45">
                <g id="Group_44" data-name="Group 44">
                  <path id="Path_53" data-name="Path 53" d="M648.38,527.292a.49.49,0,0,1-.487-.436c-.09-.814-9.028-81.474-10.135-87.758-1.1-6.244-15.556-39.993-15.7-40.333a.49.49,0,1,1,.9-.386c.6,1.393,14.647,34.193,15.767,40.549,1.113,6.315,10.054,87.006,10.144,87.82a.491.491,0,0,1-.488.544Z" fill="#4d5ffa"/>
                </g>
              </g>
              <g id="Group_47" data-name="Group 47">
                <g id="Group_46" data-name="Group 46">
                  <path id="Path_54" data-name="Path 54" d="M641.034,524.891l33.891-2.664v10.925l-33.891,2.282Z" fill="#4d5ffa"/>
                </g>
              </g>
            </g>
            <g id="Group_70" data-name="Group 70">
              <g id="Group_49" data-name="Group 49">
                <path id="Path_55" data-name="Path 55" d="M559,379.563a34.724,34.724,0,0,0,16.392.872c9.558-1.634,1.062-10.7-6.945-11.189S551.843,372.809,559,379.563Z" fill="#2c2d40"/>
              </g>
              <g id="Group_51" data-name="Group 51">
                <g id="Group_50" data-name="Group 50">
                  <path id="Path_56" data-name="Path 56" d="M572.8,523.218l-2.608,30.161,12.351.984,8.784-28.192Z" fill="#dd706b"/>
                </g>
              </g>
              <g id="Group_60" data-name="Group 60">
                <g id="Group_53" data-name="Group 53">
                  <g id="Group_52" data-name="Group 52">
                    <path id="Path_57" data-name="Path 57" d="M594.761,568.03H567.554s-.768-13.207.492-16.577,4.564,2.417,4.564,2.417,2.935-8.592,7.231-7.518c1.957.489,3.184,2.22,3.941,3.966.328-.693.8-1.372,1.348-1.179,1.028.365,1.415,7.088,1.423,7.247,1.171,1.221,2.776,2.62,4.14,2.811C593.867,559.645,596.372,563.044,594.761,568.03Z" fill="#f6f6f6"/>
                  </g>
                </g>
                <g id="Group_56" data-name="Group 56">
                  <g id="Group_55" data-name="Group 55">
                    <g id="Group_54" data-name="Group 54">
                      <path id="Path_58" data-name="Path 58" d="M567.249,555.3a12.158,12.158,0,0,1,2.824,9.152c-.049.492.72.489.769,0a12.906,12.906,0,0,0-3.049-9.7c-.321-.378-.863.169-.544.544Z" fill="#2c2d40"/>
                    </g>
                  </g>
                </g>
                <g id="Group_59" data-name="Group 59">
                  <g id="Group_58" data-name="Group 58">
                    <g id="Group_57" data-name="Group 57">
                      <path id="Path_59" data-name="Path 59" d="M567.642,565.044l26.448.276a.385.385,0,0,0,0-.77l-26.448-.276a.385.385,0,0,0,0,.77Z" fill="#2c2d40"/>
                    </g>
                  </g>
                </g>
              </g>
              <g id="Group_62" data-name="Group 62">
                <g id="Group_61" data-name="Group 61">
                  <path id="Path_60" data-name="Path 60" d="M563.714,349.711s21.671,74.031,23.419,87.378c.65,4.96-21.958,90.083-21.958,90.083l30.952,5.981s31.356-86.605,31.893-100.03S613.6,339.149,613.6,339.149Z" fill="#96b7fc"/>
                </g>
              </g>
              <g id="Group_64" data-name="Group 64">
                <g id="Group_63" data-name="Group 63">
                  <path id="Path_61" data-name="Path 61" d="M570.194,525.243a.506.506,0,0,1-.133-.018.489.489,0,0,1-.339-.6c.224-.8,22.479-80.123,22.482-87.531s-16.383-68.163-16.548-68.776a.49.49,0,1,1,.946-.256c.677,2.507,16.586,61.494,16.582,69.033s-21.6,84.522-22.518,87.8A.491.491,0,0,1,570.194,525.243Z" fill="#4d5ffa"/>
                </g>
              </g>
              <g id="Group_66" data-name="Group 66">
                <g id="Group_65" data-name="Group 65">
                  <path id="Path_62" data-name="Path 62" d="M616.624,362.92c3.318,15.862,6.378,31.781,8.95,47.783q1.119,6.965,2.106,13.95c.066.467.774.268.709-.2-2.279-16.157-5.128-32.229-8.3-48.232q-1.34-6.759-2.754-13.5c-.1-.463-.806-.267-.709.2Z" fill="#4d5ffa"/>
                </g>
              </g>
              <g id="Group_69" data-name="Group 69">
                <g id="Group_68" data-name="Group 68">
                  <g id="Group_67" data-name="Group 67">
                    <path id="Path_63" data-name="Path 63" d="M619.62,369.933c3.191-.712,4.554-4.171,4.582-7.147a25.9,25.9,0,0,0-2.2-10.862c-.21-.448-.873-.057-.664.389a25.833,25.833,0,0,1,2.068,9.5c.146,2.893-.718,6.646-3.989,7.376-.483.108-.279.849.2.742Z" fill="#4d5ffa"/>
                  </g>
                </g>
              </g>
            </g>
            <g id="Group_72" data-name="Group 72">
              <g id="Group_71" data-name="Group 71">
                <path id="Path_64" data-name="Path 64" d="M564.71,520.914l36.247,6.063-2.417,8.458-35.979-6.175Z" fill="#4d5ffa"/>
              </g>
            </g>
            <g id="Group_74" data-name="Group 74">
              <g id="Group_73" data-name="Group 73">
                <path id="Path_65" data-name="Path 65" d="M636.285,326.56l-67.962,7.927-1.228.144-6.248.728s-5.032-37.62,1.525-73.713c.049-.274.1-.546.149-.821q.552-2.948,1.208-5.875c.064-.277.125-.554.191-.831q.377-1.628.79-3.247c.995-3.887,5.338-7.87,10.524-11.39.218-.149.439-.3.662-.446a133.879,133.879,0,0,1,20.9-10.789s41.328,13.015,43.414,18.868C642.408,253.291,636.285,326.56,636.285,326.56Z" fill="#004a69"/>
              </g>
            </g>
            <g id="Group_111" data-name="Group 111">
              <path id="Path_66" data-name="Path 66" d="M599.536,213.967s-2.433,2.275-5.313,1.22-.475-2.44-.475-2.44-4.363-2.35-2.849-3.688a6.373,6.373,0,0,1,2.849-1.56s-5.186-10.882-1.059-15.694a11.856,11.856,0,0,1,9.461-3.85s1.931-3.047,8.476-1.255c4.109,1.125,7.708-4.169,12.96-2.048,4.031,1.628,5.432,10.186-.229,12.323S599.536,213.967,599.536,213.967Z" fill="#141b3c"/>
              <g id="Group_79" data-name="Group 79">
                <g id="Group_76" data-name="Group 76">
                  <g id="Group_75" data-name="Group 75">
                    <path id="Path_67" data-name="Path 67" d="M593.518,233.756s4.962,11.626,17.778,6.408l.62-8.565.409-5.651.288-3.957-14.607-7.79C596.257,221.1,596.412,225.166,593.518,233.756Z" fill="#dd706b"/>
                  </g>
                </g>
                <g id="Group_78" data-name="Group 78">
                  <g id="Group_77" data-name="Group 77">
                    <path id="Path_68" data-name="Path 68" d="M600.494,220.806c3.657,10.048,9.095,13.036,11.266,12.948l.565-7.806Z" fill="#2c2d40"/>
                  </g>
                </g>
              </g>
              <g id="Group_99" data-name="Group 99">
                <path id="Path_69" data-name="Path 69" d="M621.912,193.233s4.345,6.838-.968,11.992S616.725,192.3,621.912,193.233Z" fill="#141b3c"/>
                <g id="Group_81" data-name="Group 81">
                  <g id="Group_80" data-name="Group 80">
                    <path id="Path_70" data-name="Path 70" d="M596.311,211.358a14.134,14.134,0,0,0,.1,1.749,10.965,10.965,0,0,0,1.045,3.513,35.448,35.448,0,0,0,3.294,5.123c2.344,3.235,6.274,4.514,10.1,4.588,10.149.2,11.185-6.7,10.525-17.166-.412-6.5,1.479-10.063-.1-12.611h0c-.107-.118-.216-.234-.326-.346a14.605,14.605,0,0,0-9.979-4.381c-.725-.026-1.418-.029-2.084-.008-.151,0-.3.005-.45.014a1.825,1.825,0,0,0-.183.009c-.169.006-.335.015-.5.03-.118.006-.236.015-.352.027-.269.02-.529.047-.784.076-8.133.971-10.234,5.878-10.6,10.75C595.758,206.037,596.311,209.331,596.311,211.358Z" fill="#dd706b"/>
                  </g>
                </g>
                <g id="Group_82" data-name="Group 82">
                  <path id="Path_71" data-name="Path 71" d="M608.175,205.038s.928-2.528,2.67-2.643,2.232,2.292,2.232,2.292Z" fill="#141b3c"/>
                </g>
                <g id="Group_83" data-name="Group 83">
                  <path id="Path_72" data-name="Path 72" d="M620.944,205.225s-.727-2.592-2.455-2.843-2.4,2.111-2.4,2.111Z" fill="#141b3c"/>
                </g>
                <g id="Group_85" data-name="Group 85">
                  <g id="Group_84" data-name="Group 84">
                    <path id="Path_73" data-name="Path 73" d="M606.976,210.6c0,.557.866,1.008,1.935,1.008s1.934-.451,1.934-1.008-.866-1.008-1.934-1.008S606.976,210.048,606.976,210.6Z" fill="#a55047"/>
                  </g>
                </g>
                <g id="Group_87" data-name="Group 87">
                  <g id="Group_86" data-name="Group 86">
                    <path id="Path_74" data-name="Path 74" d="M621.5,211.8a2.828,2.828,0,0,1-1.522.387c-1.067,0-1.933-.451-1.933-1.009s.866-1.006,1.933-1.006a2.912,2.912,0,0,1,1.47.353Z" fill="#a55047"/>
                  </g>
                </g>
                <g id="Group_89" data-name="Group 89">
                  <g id="Group_88" data-name="Group 88">
                    <path id="Path_75" data-name="Path 75" d="M609.967,207.178c0,.53.322.96.72.96s.72-.43.72-.96-.322-.96-.72-.96S609.967,206.648,609.967,207.178Z" fill="#2c2d40"/>
                  </g>
                </g>
                <g id="Group_91" data-name="Group 91">
                  <g id="Group_90" data-name="Group 90">
                    <path id="Path_76" data-name="Path 76" d="M616.6,207.253c0,.53.322.96.72.96s.72-.43.72-.96-.323-.961-.72-.961S616.6,206.722,616.6,207.253Z" fill="#2c2d40"/>
                  </g>
                </g>
                <g id="Group_93" data-name="Group 93">
                  <g id="Group_92" data-name="Group 92">
                    <path id="Path_77" data-name="Path 77" d="M615.029,211.715c-.072,0-.145,0-.22-.006a.256.256,0,1,1,.027-.512,3.1,3.1,0,0,0,1.516-.279,5.661,5.661,0,0,1-1.071-2.927.257.257,0,0,1,.512-.036,4.8,4.8,0,0,0,1.143,2.818.259.259,0,0,1,.091.2.253.253,0,0,1-.1.2A3.211,3.211,0,0,1,615.029,211.715Z" fill="#2c2d40"/>
                  </g>
                </g>
                <g id="Group_95" data-name="Group 95">
                  <g id="Group_94" data-name="Group 94">
                    <path id="Path_78" data-name="Path 78" d="M618.412,213.7s-2.377-.259-7.047-.74c0,0,.3,5.028,3.709,5.008C617.961,217.954,618.412,213.7,618.412,213.7Z" fill="#f6f6f6"/>
                  </g>
                </g>
                <g id="Group_98" data-name="Group 98">
                  <g id="Group_97" data-name="Group 97">
                    <g id="Group_96" data-name="Group 96">
                      <path id="Path_79" data-name="Path 79" d="M615.637,219.722a2.1,2.1,0,0,1-2.2-.324c-.312-.294.159-.765.471-.471a1.47,1.47,0,0,0,1.552.153c.408-.135.583.508.177.642Z" fill="#a55047"/>
                    </g>
                  </g>
                </g>
              </g>
              <g id="Group_101" data-name="Group 101">
                <g id="Group_100" data-name="Group 100">
                  <path id="Path_80" data-name="Path 80" d="M599.952,214.214a5.581,5.581,0,0,1-3.54-1.107,10.965,10.965,0,0,0,1.045,3.513A5.636,5.636,0,0,0,599.952,214.214Z" fill="#2c2d40"/>
                </g>
              </g>
              <g id="Group_103" data-name="Group 103">
                <g id="Group_102" data-name="Group 102">
                  <path id="Path_81" data-name="Path 81" d="M598.286,202.654c4.037,1.1,4.439,7.991,6.511,6.807s-1.776-12.43,3.551-12.135,4.668,1.306,7.1,1.48c4.144.3,4.144-1.775,5.819-2.252-.107-.118-.216-.234-.326-.346a14.605,14.605,0,0,0-9.979-4.381c-.725-.026-1.418-.029-2.084-.008-.151,0-.3.005-.45.014a1.825,1.825,0,0,0-.183.009c-.169.006-.335.015-.5.03-.118.006-.236.015-.352.027-.266.017-.529.044-.784.076-8.133.971-10.234,5.878-10.6,10.75A3.435,3.435,0,0,1,598.286,202.654Z" fill="#141b3c"/>
                </g>
              </g>
              <g id="Group_106" data-name="Group 106">
                <g id="Group_105" data-name="Group 105">
                  <g id="Group_104" data-name="Group 104">
                    <path id="Path_82" data-name="Path 82" d="M603.171,211.7a5.632,5.632,0,0,0-.7-4.859c-1.22-1.863-3.473-4.728-5.63-4.428-3.171.441-3.547,3.269-3.235,6.148s2.2,6.649,6.158,6.04A4.065,4.065,0,0,0,603.171,211.7Z" fill="#dd706b"/>
                  </g>
                </g>
              </g>
              <g id="Group_110" data-name="Group 110">
                <g id="Group_109" data-name="Group 109">
                  <g id="Group_108" data-name="Group 108">
                    <g id="Group_107" data-name="Group 107">
                      <path id="Path_83" data-name="Path 83" d="M599.394,211.193a7.351,7.351,0,0,0-.215-3.623c-.4-1.033-1.559-2.531-2.884-2.1-.444.146-.748-.522-.3-.669a2.977,2.977,0,0,1,3.247,1.361,6.934,6.934,0,0,1,.88,5.112.367.367,0,0,1-.728-.085Z" fill="#2c2d40"/>
                    </g>
                  </g>
                </g>
              </g>
            </g>
            <g id="Group_113" data-name="Group 113">
              <g id="Group_112" data-name="Group 112">
                <path id="Path_84" data-name="Path 84" d="M623.937,366.447q-.36.033-.725.061c-21.578,1.8-47.733.432-54.465.621-12.731.352-7.182-86.9-7.182-86.9l77.3,10.513s3.557,38.816,14.167,60.036C657.969,360.651,642.827,364.8,623.937,366.447Z" fill="#004a69"/>
              </g>
            </g>
            <g id="Group_115" data-name="Group 115">
              <g id="Group_114" data-name="Group 114">
                <path id="Path_85" data-name="Path 85" d="M598.784,316.148c6.711-2.45,14.557-2.863,21.046.492,6.595,3.409,10.19,10.208,13.463,16.54.217.42.852.049.634-.371-3.388-6.557-7.16-13.571-14.068-16.977-6.6-3.257-14.484-2.87-21.27-.393-.441.16-.251.871.2.709Z" fill="#004a69"/>
              </g>
            </g>
            <g id="Group_117" data-name="Group 117">
              <g id="Group_116" data-name="Group 116">
                <path id="Path_86" data-name="Path 86" d="M593.152,331.266c9.055-2.234,17.425,3.314,24.365,8.428,6.317,4.654,12.89,9.61,21.032,10.055a16,16,0,0,0,10.99-3.229c.37-.295-.153-.812-.52-.52-6.46,5.144-15.549,3.029-22.1-.741-7.185-4.133-13.124-10.233-20.89-13.376a21.231,21.231,0,0,0-13.07-1.326.368.368,0,0,0,.2.709Z" fill="#004a69"/>
              </g>
            </g>
            <g id="Group_137" data-name="Group 137">
              <g id="Group_120" data-name="Group 120">
                <g id="Group_119" data-name="Group 119">
                  <g id="Group_118" data-name="Group 118">
                    <path id="Path_87" data-name="Path 87" d="M625.324,238.477a24.361,24.361,0,0,1-3.088,3.19c-7.461,6.433-17.992,7.682-27.139,4.43a33.244,33.244,0,0,1-14.233-10.109c.233-.131.467-.266.7-.4a34.879,34.879,0,0,0,3.008,3.149c7.155,6.611,17.339,9.9,26.941,7.572a24.5,24.5,0,0,0,13.019-8.162C624.8,238.26,625.061,238.37,625.324,238.477Z" fill="#004a69"/>
                  </g>
                </g>
              </g>
              <g id="Group_123" data-name="Group 123">
                <g id="Group_122" data-name="Group 122">
                  <g id="Group_121" data-name="Group 121">
                    <path id="Path_88" data-name="Path 88" d="M639.6,279.864c-.017.392-.039.787-.064,1.179-.262-.314-.519-.63-.772-.951a45.857,45.857,0,0,1-8.654-17.63,47.6,47.6,0,0,1-.066-21.941l.735.339a45.629,45.629,0,0,0-.838,4.75c-.133,1.068-.226,2.144-.282,3.22a45.683,45.683,0,0,0,8.11,28.6q.512.727,1.049,1.434C639.077,279.2,639.337,279.536,639.6,279.864Z" fill="#4d5ffa"/>
                  </g>
                </g>
              </g>
              <g id="Group_126" data-name="Group 126">
                <g id="Group_125" data-name="Group 125">
                  <g id="Group_124" data-name="Group 124">
                    <path id="Path_89" data-name="Path 89" d="M586.719,307.784c-2.5,10.157-8.113,19-15.292,26.417a83.344,83.344,0,0,1-9.689,8.526c-.029-.306-.058-.62-.085-.933a82.737,82.737,0,0,0,8.546-7.449l0,0a68.269,68.269,0,0,0,6.632-7.718c9.1-12.417,13.549-29.064,8.233-43.909-.16-.437-.324-.875-.5-1.309-.24-.606-.5-1.2-.772-1.787v0a38.646,38.646,0,0,0-18.318-18.255l0,0c.049-.274.1-.546.15-.821h0a40.322,40.322,0,0,1,8.306,5.245,38.811,38.811,0,0,1,10.174,12.662,35.865,35.865,0,0,1,1.846,4.392c.061.162.118.326.169.49A44.489,44.489,0,0,1,586.719,307.784Z" fill="#4d5ffa"/>
                  </g>
                </g>
              </g>
              <g id="Group_129" data-name="Group 129">
                <g id="Group_128" data-name="Group 128">
                  <g id="Group_127" data-name="Group 127">
                    <path id="Path_90" data-name="Path 90" d="M650.015,336.94c-2.68-2.7-5.445-5.313-8.213-7.915q-2.658-2.5-5.309-5.005a167.007,167.007,0,0,1-11.808-12.2,84.236,84.236,0,0,1-6.973-9.29c-2.137-3.329-4.186-7.029-4.454-11.062a10.048,10.048,0,0,1,.564-4.132,11.27,11.27,0,0,1,9.188-6.954,13.065,13.065,0,0,1,4,.043,18.532,18.532,0,0,1,9.569,4.959,30.634,30.634,0,0,1,2.562,2.666c-.024.4-.051.8-.078,1.2a34.463,34.463,0,0,0-3.219-3.429c-3.48-3.2-7.628-5.335-12.6-4.7-.051.006-.1.011-.156.019-3.544.492-7.066,2.645-8.414,6.077-.03.075-.059.15-.086.228-1.466,4.051.225,8.474,2.215,12.039,3.641,6.514,8.621,12.273,13.8,17.605,1.952,2.009,3.952,3.972,5.977,5.91,4.253,4.076,8.61,8.058,12.8,12.192A8.99,8.99,0,0,1,650.015,336.94Z" fill="#004a69"/>
                  </g>
                </g>
              </g>
              <g id="Group_133" data-name="Group 133">
                <g id="Group_132" data-name="Group 132">
                  <g id="Group_131" data-name="Group 131">
                    <g id="Group_130" data-name="Group 130">
                      <path id="Path_91" data-name="Path 91" d="M607.822,262.484c-2.105-1.512-4.32-.945-6.385.212l0,0c-.035.016-.07.037-.1.056s-.057.043-.086.064l0,0a30.044,30.044,0,0,0-8.769,10.759c-1.77,3.488-3.807,9.5.993,11.674,3.95,1.788,8.474-1.192,11.1-3.971,3.123-3.3,5.692-8.259,5.69-12.888C610.249,266.294,609.621,263.775,607.822,262.484Zm-3.415,17.777c-2.309,2.61-6.27,5.617-10.007,4.484-5.352-1.622-2.57-8.246-.841-11.513a28.46,28.46,0,0,1,8.176-9.782c1.906-1.087,4.205-1.731,6,0,1.493,1.437,1.855,3.945,1.665,5.9A20.193,20.193,0,0,1,604.407,280.261Z" fill="#004a69"/>
                    </g>
                  </g>
                </g>
              </g>
              <g id="Group_136" data-name="Group 136">
                <g id="Group_135" data-name="Group 135">
                  <g id="Group_134" data-name="Group 134">
                    <path id="Path_92" data-name="Path 92" d="M583.134,256.666c-2.65,3.909-8.211,2.865-12.008,1.686a31.866,31.866,0,0,1-7.392-3.4l-.005,0c.064-.277.125-.554.191-.831a30.978,30.978,0,0,0,7.228,3.4c3.888,1.235,11.709,2.471,12.062-3.627a7.788,7.788,0,0,0-.863-3.733,29.308,29.308,0,0,0-1.75-3.035q-1.89-3.011-4.015-5.872c-.441-.593-.892-1.184-1.348-1.765.218-.149.439-.3.662-.446q1.867,2.387,3.578,4.9c1.6,2.353,4.182,5.71,4.54,8.936A5.481,5.481,0,0,1,583.134,256.666Z" fill="#4d5ffa"/>
                  </g>
                </g>
              </g>
            </g>
            <g id="Group_140" data-name="Group 140">
              <g id="Group_139" data-name="Group 139">
                <g id="Group_138" data-name="Group 138">
                  <path id="Path_93" data-name="Path 93" d="M640.334,262.105c-.441,5.911-.431,11.84-.73,17.759-.017.392-.039.787-.064,1.179q-.059,1.077-.139,2.152c-.037.493-.807.495-.77,0l.137-3.1.054-1.225.743-16.762C639.6,261.614,640.371,261.612,640.334,262.105Z" fill="#4d5ffa"/>
                </g>
              </g>
            </g>
            <g id="Group_143" data-name="Group 143">
              <g id="Group_142" data-name="Group 142">
                <g id="Group_141" data-name="Group 141">
                  <path id="Path_94" data-name="Path 94" d="M609.441,434.269a15.564,15.564,0,0,0,18.712-.635c.387-.309-.161-.85-.544-.544a14.79,14.79,0,0,1-17.779.514c-.407-.284-.792.382-.389.665Z" fill="#4d5ffa"/>
                </g>
              </g>
            </g>
            <g id="Group_146" data-name="Group 146">
              <g id="Group_145" data-name="Group 145">
                <g id="Group_144" data-name="Group 144">
                  <path id="Path_95" data-name="Path 95" d="M654.644,433.667a11.7,11.7,0,0,0,7.493.9c2.308-.364,4.913-1.181,6.383-3.118.3-.394-.368-.778-.664-.388-1.33,1.751-3.853,2.443-5.923,2.764a10.866,10.866,0,0,1-6.9-.819.385.385,0,0,0-.388.664Z" fill="#4d5ffa"/>
                </g>
              </g>
            </g>
          </g>
          <g id="Group_157" data-name="Group 157">
            <g id="Group_148" data-name="Group 148">
              <path id="Path_96" data-name="Path 96" d="M595.241,227.856s-19.521,9.114-26.383,13.853-7.842,17.158-8.5,23.2S546.8,377.845,559,379.563c0,0-7.2-7.724,4.727-8.133s32.956,5.379,46.523,2.117c-12.07-69.65-10.014-93.458-10.014-133.928C600.238,239.619,595.476,237.966,595.241,227.856Z" fill="#f6f6f6"/>
            </g>
            <g id="Group_151" data-name="Group 151">
              <g id="Group_150" data-name="Group 150">
                <g id="Group_149" data-name="Group 149">
                  <path id="Path_97" data-name="Path 97" d="M575.47,349.128a7.8,7.8,0,0,1-4.871-1.71c-5.785-4.484-7.135-16.152-7.19-16.647a.362.362,0,0,1,.079-.27.369.369,0,0,1,.248-.136l19.79-2.072a.37.37,0,0,1,.4.306c.078.479,1.87,11.8-2.272,17.442a7.223,7.223,0,0,1-4.953,3A8.648,8.648,0,0,1,575.47,349.128Z" fill="#9beaff"/>
                </g>
              </g>
            </g>
            <g id="Group_153" data-name="Group 153">
              <g id="Group_152" data-name="Group 152">
                <path id="Path_98" data-name="Path 98" d="M596.773,309.234c.677,15.1,2.9,30.016,5.1,44.953.686,4.661,1.351,9.325,1.957,14,.06.463.8.469.735,0-1.961-15.111-4.652-30.131-6.1-45.306q-.651-6.81-.958-13.645c-.021-.471-.757-.474-.735,0Z" fill="#96b7fc"/>
              </g>
            </g>
            <g id="Group_155" data-name="Group 155">
              <g id="Group_154" data-name="Group 154">
                <path id="Path_99" data-name="Path 99" d="M554.808,367.966c8.454-4.243,18.091-2.226,26.921-.528A78.337,78.337,0,0,0,595.3,369.1a59.533,59.533,0,0,0,13.533-1.368c.462-.1.266-.809-.2-.709a58.554,58.554,0,0,1-14.736,1.3,96.15,96.15,0,0,1-14.291-2.039c-8.32-1.6-17.288-2.91-25.177,1.049-.423.212-.051.847.371.635Z" fill="#96b7fc"/>
              </g>
            </g>
            <g id="Group_156" data-name="Group 156">
              <path id="Path_100" data-name="Path 100" d="M595.241,227.856s-3.012-.5-7.1,3.408l3.136,18.937,5.685,1.965-4.41,4.74.966,36.939s7.332,12.847,7.831,11.96-1.111-66.186-1.111-66.186S595.971,235.734,595.241,227.856Z" fill="#9beaff"/>
            </g>
          </g>
          <g id="Group_171" data-name="Group 171">
            <g id="Group_158" data-name="Group 158">
              <path id="Path_101" data-name="Path 101" d="M640.684,246.612s12.895,41.407,18.042,51.218-.49,34.926-15.124,23.309C630.393,310.654,640.684,246.612,640.684,246.612Z" fill="#f6f6f6"/>
            </g>
            <g id="Group_159" data-name="Group 159">
              <path id="Path_102" data-name="Path 102" d="M679.641,282.207s-8.5,37.447-28.921,41.939l-5.189-1.652V301.633l22.893-18.067Z" fill="#f6f6f6"/>
            </g>
            <g id="Group_161" data-name="Group 161">
              <g id="Group_160" data-name="Group 160">
                <path id="Path_103" data-name="Path 103" d="M656.947,293.489a22.8,22.8,0,0,0-8.91,8.458.368.368,0,0,0,.635.371,22.063,22.063,0,0,1,8.646-8.194c.418-.221.047-.856-.371-.635Z" fill="#96b7fc"/>
              </g>
            </g>
            <g id="Group_162" data-name="Group 162">
              <path id="Path_104" data-name="Path 104" d="M662.4,367.129c-12.99,6.546-33.6,6.419-33.6,6.419s-7.872-23.356-9.659-59-7.846-74.382-7.846-74.382l.618-8.093c11.355,3.267,27.7,12.58,28.772,14.541s.64,31.372,1.13,49.431c.184,6.789,3.139,18.522,6.757,30.52,1.583,5.252,3.294,10.558,4.956,15.522C658.16,355.935,662.4,367.129,662.4,367.129Z" fill="#f6f6f6"/>
            </g>
            <g id="Group_165" data-name="Group 165">
              <g id="Group_164" data-name="Group 164">
                <g id="Group_163" data-name="Group 163">
                  <path id="Path_105" data-name="Path 105" d="M648.572,326.563l-9.328,1a.364.364,0,0,0-.326.4c.046.431,1.2,10.581,6.154,14.419a6.553,6.553,0,0,0,4.091,1.439,7.258,7.258,0,0,0,1.049-.079,5.578,5.578,0,0,0,3.316-1.656C651.866,337.121,650.155,331.815,648.572,326.563Z" fill="#9beaff"/>
                </g>
              </g>
            </g>
            <g id="Group_167" data-name="Group 167">
              <g id="Group_166" data-name="Group 166">
                <path id="Path_106" data-name="Path 106" d="M621.5,296.857a295.766,295.766,0,0,0,5,56.1c1,5.153,2.183,10.27,3.586,15.329a.368.368,0,0,0,.709-.2c-5.042-18.177-7.357-37.079-8.215-55.891q-.349-7.664-.347-15.339a.368.368,0,0,0-.736,0Z" fill="#96b7fc"/>
              </g>
            </g>
            <g id="Group_169" data-name="Group 169">
              <g id="Group_168" data-name="Group 168">
                <path id="Path_107" data-name="Path 107" d="M627.692,368.707a62.434,62.434,0,0,0,31.719-4.789c.434-.188.06-.822-.371-.635a61.715,61.715,0,0,1-31.348,4.688c-.469-.052-.465.684,0,.736Z" fill="#96b7fc"/>
              </g>
            </g>
            <g id="Group_170" data-name="Group 170">
              <path id="Path_108" data-name="Path 108" d="M611.3,240.164s6.138,51.687,7.218,66.64c0,0,6.414-11.5,6.81-13.787s-3.825-39.453-3.825-39.453l-3.455-3.363,3.226-5.046L618.6,234.419a20.915,20.915,0,0,0-6.627-3.571Z" fill="#9beaff"/>
            </g>
          </g>
          <g id="Group_173" data-name="Group 173">
            <g id="Group_172" data-name="Group 172">
              <path id="Path_109" data-name="Path 109" d="M641.555,268.792c-.123,14.161-.313,28.446,2.54,42.387.788,3.85,1.785,7.651,2.92,11.412a.368.368,0,0,0,.709-.2,120.84,120.84,0,0,1-4.286-19.652,173.681,173.681,0,0,1-1.174-20.123c-.048-4.609-.013-9.219.027-13.829a.368.368,0,0,0-.736,0Z" fill="#96b7fc"/>
            </g>
          </g>
          <g id="Group_180" data-name="Group 180">
            <g id="Group_175" data-name="Group 175">
              <g id="Group_174" data-name="Group 174">
                <path id="Path_110" data-name="Path 110" d="M667.151,297.475l-27.733.126a1.657,1.657,0,0,1-1.551-2.259l15.848-40.655a1.656,1.656,0,0,1,1.536-1.055l27.732-.126a1.657,1.657,0,0,1,1.552,2.259L668.687,296.42A1.657,1.657,0,0,1,667.151,297.475Z" fill="#141b3c"/>
              </g>
            </g>
            <g id="Group_177" data-name="Group 177">
              <g id="Group_176" data-name="Group 176">
                <path id="Path_111" data-name="Path 111" d="M669.921,297.462l-27.732.126a1.657,1.657,0,0,1-1.551-2.259l15.848-40.655a1.656,1.656,0,0,1,1.536-1.055l27.732-.125a1.657,1.657,0,0,1,1.552,2.258l-15.848,40.655A1.656,1.656,0,0,1,669.921,297.462Z" fill="#141b3c"/>
              </g>
            </g>
            <g id="Group_179" data-name="Group 179">
              <g id="Group_178" data-name="Group 178">
                <path id="Path_112" data-name="Path 112" d="M641.977,292.2a.356.356,0,0,1-.11-.024.368.368,0,0,1-.209-.476l14.028-35.987a.368.368,0,1,1,.685.267l-14.028,35.987A.367.367,0,0,1,641.977,292.2Z" fill="#59647a"/>
              </g>
            </g>
          </g>
          <g id="Group_182" data-name="Group 182">
            <g id="Group_181" data-name="Group 181">
              <path id="Path_113" data-name="Path 113" d="M679.083,275.481s-9.071-.5-10.505,1.352,7.652,3.673,7.652,3.673-5.365-.161-6.726,1.111,5.3,3.321,5.3,3.321-3.588.039-3.723,2,1.228,2.672,3.219,3.155A5.44,5.44,0,0,0,679.042,289c.786-.784.114-2.793.114-2.793s3.412-1.689,3.537-2.992a2.835,2.835,0,0,0-.81-2.178,2.99,2.99,0,0,0,2.192-1.82,2.625,2.625,0,0,0-.179-2.509,35.754,35.754,0,0,0,1.8-4.6c.435-1.7-2.562-3.037-4.378-4.1s-5.086,2.659-8.083,3.323c0,0-1.527.934.11,2.077s5.137-.572,5.9-.505S679.083,275.481,679.083,275.481Z" fill="#dd706b"/>
            </g>
          </g>
          <g id="Group_194" data-name="Group 194">
            <g id="Group_184" data-name="Group 184">
              <g id="Group_183" data-name="Group 183">
                <path id="Path_114" data-name="Path 114" d="M621.6,213.686c-.137-.933-.421-1.6-.927-1.635-3.13-.187-3.515-3.732-5.765-1.672-1.3,1.194-4.363,2.286-5.711,2.787a2.12,2.12,0,0,0-.654.388l-.076-.193s-2.544-2.684-5.351-5.206a4.363,4.363,0,0,1,.359,1.635c1.351,1.394,3.4,3.836,3.806,6.153a8.8,8.8,0,0,1-1.462,6.373c-1.259.793-6.466-2.415-8.757-7.016a10.661,10.661,0,0,0,.355,1.355,10.155,10.155,0,0,0,2.3,3.781c1.773,1.844,4.239,4.188,5.714,4.606a3.556,3.556,0,0,0,1.12.745,13.137,13.137,0,0,0,8.513.094c5.4-1.571,5.752-5.3,6.157-6.451A16.559,16.559,0,0,0,621.6,213.686Z" fill="#f6f6f6"/>
              </g>
            </g>
            <g id="Group_185" data-name="Group 185">
              <path id="Path_115" data-name="Path 115" d="M621.222,219.43c-.4,1.15-.762,4.88-6.157,6.451a13.137,13.137,0,0,1-8.513-.094,2.439,2.439,0,0,1,.253-.332c2.959-3.329,2.582-11.146,2.582-11.146,1.424.19,5.164-2.311,6.367-3.2s1.9.064,2.547.723c.626.641,2.118.848,3.3,1.852A16.559,16.559,0,0,1,621.222,219.43Z" fill="#96b7fc"/>
            </g>
            <g id="Group_187" data-name="Group 187">
              <g id="Group_186" data-name="Group 186">
                <path id="Path_116" data-name="Path 116" d="M615.079,214.6a9.751,9.751,0,0,0,3.474-.1c.385-.08.222-.669-.162-.588a8.889,8.889,0,0,1-3.149.1c-.385-.057-.551.531-.163.589Z" fill="#4d5ffa"/>
              </g>
            </g>
            <g id="Group_189" data-name="Group 189">
              <g id="Group_188" data-name="Group 188">
                <path id="Path_117" data-name="Path 117" d="M612.167,216.975a15.282,15.282,0,0,0,8.295-.56c.368-.13.21-.72-.162-.589a14.659,14.659,0,0,1-7.97.561c-.384-.079-.548.509-.163.588Z" fill="#4d5ffa"/>
              </g>
            </g>
            <g id="Group_191" data-name="Group 191">
              <g id="Group_190" data-name="Group 190">
                <path id="Path_118" data-name="Path 118" d="M611.409,219.592a15.654,15.654,0,0,0,8.538-.581c.368-.13.21-.72-.162-.588a15.025,15.025,0,0,1-8.214.58c-.383-.079-.547.509-.162.589Z" fill="#4d5ffa"/>
              </g>
            </g>
            <g id="Group_193" data-name="Group 193">
              <g id="Group_192" data-name="Group 192">
                <path id="Path_119" data-name="Path 119" d="M610.78,222.512a12.756,12.756,0,0,0,8.607-.756c.358-.159.048-.685-.308-.527a12.079,12.079,0,0,1-8.136.694.306.306,0,0,0-.163.589Z" fill="#4d5ffa"/>
              </g>
            </g>
          </g>
          <g id="Group_209" data-name="Group 209">
            <g id="Group_197" data-name="Group 197">
              <g id="Group_196" data-name="Group 196">
                <g id="Group_195" data-name="Group 195">
                  <path id="Path_120" data-name="Path 120" d="M574.328,239.572A17.235,17.235,0,0,1,586,252.264c.1.462.81.266.709-.2a17.977,17.977,0,0,0-12.187-13.206c-.453-.139-.647.571-.2.709Z" fill="#96b7fc"/>
                </g>
              </g>
            </g>
            <g id="Group_198" data-name="Group 198">
              <path id="Path_121" data-name="Path 121" d="M564.658,246.612S542.551,291.074,545,310.387s19.26,16.784,33.66,12.107c10.58-3.438,36.07-29.681,36.07-29.681-.972-9.663-7.231-9.373-9.41-7.874,0,0-25.55,11.818-32.87,13.388l11.03-27.7S588.726,248.818,564.658,246.612Z" fill="#f6f6f6"/>
            </g>
            <g id="Group_200" data-name="Group 200">
              <g id="Group_199" data-name="Group 199">
                <path id="Path_122" data-name="Path 122" d="M545.474,305.551a16.433,16.433,0,0,1,7.658,18.234.368.368,0,0,0,.709.2,17.181,17.181,0,0,0-8-19.064.368.368,0,0,0-.371.635Z" fill="#96b7fc"/>
              </g>
            </g>
            <g id="Group_202" data-name="Group 202">
              <g id="Group_201" data-name="Group 201">
                <path id="Path_123" data-name="Path 123" d="M601,287.2a10.571,10.571,0,0,0,10.3,8.809.368.368,0,0,0,0-.736,9.839,9.839,0,0,1-9.588-8.269c-.08-.465-.789-.268-.709.2Z" fill="#96b7fc"/>
              </g>
            </g>
            <g id="Group_204" data-name="Group 204">
              <g id="Group_203" data-name="Group 203">
                <path id="Path_124" data-name="Path 124" d="M600.807,306.156c-9.709,9.366-21.545,16.719-34.995,19.029a21.326,21.326,0,0,1-10.566-.668c-.448-.155-.641.555-.2.709,6.23,2.154,12.981.647,19.039-1.351a65.859,65.859,0,0,0,18.154-9.506,87.8,87.8,0,0,0,9.084-7.693c.342-.33-.179-.849-.52-.52Z" fill="#96b7fc"/>
              </g>
            </g>
            <g id="Group_206" data-name="Group 206">
              <g id="Group_205" data-name="Group 205">
                <path id="Path_125" data-name="Path 125" d="M572.806,297.951a18,18,0,0,0-11.081,5.574c-.324.345.2.866.52.52a17.221,17.221,0,0,1,10.561-5.359c.464-.054.47-.79,0-.735Z" fill="#96b7fc"/>
              </g>
            </g>
            <g id="Group_208" data-name="Group 208">
              <g id="Group_207" data-name="Group 207">
                <path id="Path_126" data-name="Path 126" d="M571.365,297.964a35.234,35.234,0,0,0-8.716-.731.368.368,0,0,0,0,.735,34.437,34.437,0,0,1,8.521.705.368.368,0,0,0,.2-.709Z" fill="#96b7fc"/>
              </g>
            </g>
          </g>
          <g id="Group_227" data-name="Group 227">
            <g id="Group_211" data-name="Group 211">
              <g id="Group_210" data-name="Group 210">
                <path id="Path_127" data-name="Path 127" d="M605.322,286.7s3.676-15.474,4.83-16.89,15.8-3.256,17.254-3.836.99,2.254-1.637,2.973-7.325,2.6-7.325,2.6,4.473-.9,5.465.021,5.743,7.83,5.163,11.5-4.826,4.365-6.033,4.84-.377-3.343-.377-3.343a12.362,12.362,0,0,1-3.418,1.352c-2.054.5-4.15,5.089-6.21,6.05S605.322,286.7,605.322,286.7Z" fill="#dd706b"/>
              </g>
            </g>
            <g id="Group_214" data-name="Group 214">
              <g id="Group_213" data-name="Group 213">
                <g id="Group_212" data-name="Group 212">
                  <path id="Path_128" data-name="Path 128" d="M614.859,272.57a13.49,13.49,0,0,1,3.484-.688c.44-.032.421-.717-.02-.686a14.143,14.143,0,0,0-3.66.717c-.417.143-.222.8.2.657Z" fill="#a55047"/>
                </g>
              </g>
            </g>
            <g id="Group_217" data-name="Group 217">
              <g id="Group_216" data-name="Group 216">
                <g id="Group_215" data-name="Group 215">
                  <path id="Path_129" data-name="Path 129" d="M618.827,275.158c1.923-.935,4.06-1.921,6.208-1.112.408.153.733-.452.319-.607-2.408-.907-4.705.075-6.89,1.137-.4.192-.03.773.363.582Z" fill="#a55047"/>
                </g>
              </g>
            </g>
            <g id="Group_220" data-name="Group 220">
              <g id="Group_219" data-name="Group 219">
                <g id="Group_218" data-name="Group 218">
                  <path id="Path_130" data-name="Path 130" d="M621.113,277.919a6.074,6.074,0,0,1,5.759-.526c.4.171.727-.434.319-.608a6.785,6.785,0,0,0-6.441.552c-.369.241-.007.824.363.582Z" fill="#a55047"/>
                </g>
              </g>
            </g>
            <g id="Group_223" data-name="Group 223">
              <g id="Group_222" data-name="Group 222">
                <g id="Group_221" data-name="Group 221">
                  <path id="Path_131" data-name="Path 131" d="M622.7,284.954a5.5,5.5,0,0,0,2.194-3.827c.047-.434-.621-.593-.668-.154a4.839,4.839,0,0,1-1.89,3.4c-.349.265.012.85.364.582Z" fill="#a55047"/>
                </g>
              </g>
            </g>
            <g id="Group_226" data-name="Group 226">
              <g id="Group_225" data-name="Group 225">
                <g id="Group_224" data-name="Group 224">
                  <path id="Path_132" data-name="Path 132" d="M624.4,283.088a1.845,1.845,0,0,1,2.064.264c.33.292.8-.212.464-.505a2.552,2.552,0,0,0-2.891-.341c-.392.2-.026.786.363.582Z" fill="#a55047"/>
                </g>
              </g>
            </g>
          </g>
          <g id="Group_229" data-name="Group 229">
            <g id="Group_228" data-name="Group 228">
              <path id="Path_133" data-name="Path 133" d="M582.848,273.594a241.189,241.189,0,0,0-10.173,24.278c-.16.446.551.638.709.195a239.4,239.4,0,0,1,10.1-24.1c.205-.424-.429-.8-.635-.371Z" fill="#96b7fc"/>
            </g>
          </g>
          <g id="Group_231" data-name="Group 231">
            <g id="Group_230" data-name="Group 230">
              <path id="Path_134" data-name="Path 134" d="M593.315,289.493c-6.677,3.049-13.5,5.746-20.384,8.3-.439.164-.249.875.2.709,6.938-2.575,13.825-5.3,20.559-8.373.429-.2.056-.83-.371-.635Z" fill="#96b7fc"/>
            </g>
          </g>
          <g id="Group_242" data-name="Group 242">
            <g id="Group_241" data-name="Group 241">
              <g id="Group_235" data-name="Group 235">
                <g id="Group_234" data-name="Group 234">
                  <g id="Group_233" data-name="Group 233">
                    <g id="Group_232" data-name="Group 232">
                      <path id="Path_135" data-name="Path 135" d="M642.113,226.785A14.284,14.284,0,1,0,656.4,212.5,14.284,14.284,0,0,0,642.113,226.785Z" fill="#004a69"/>
                    </g>
                  </g>
                </g>
              </g>
              <g id="Group_238" data-name="Group 238">
                <g id="Group_237" data-name="Group 237">
                  <g id="Group_236" data-name="Group 236">
                    <path id="Path_136" data-name="Path 136" d="M651.726,233.029a1.108,1.108,0,0,1-.983-.6l-2.231-4.267a1.11,1.11,0,0,1,1.967-1.028l1.573,3.009,10.51-9.328a1.109,1.109,0,0,1,1.472,1.66l-11.572,10.269A1.106,1.106,0,0,1,651.726,233.029Z" fill="#f6f6f6"/>
                  </g>
                </g>
              </g>
              <g id="Group_240" data-name="Group 240">
                <g id="Group_239" data-name="Group 239">
                  <path id="Path_137" data-name="Path 137" d="M657.137,238.54l5.733,6.141a.88.88,0,0,0,1.523-.607l-.057-7.41Z" fill="#004a69"/>
                </g>
              </g>
            </g>
          </g>
        </g>
      </g>
    </g>
  </g>
</svg>
