<svg xmlns="http://www.w3.org/2000/svg" width="23.037" height="31.118" viewBox="0 0 23.037 31.118">
  <g id="medical-fileUnselected" transform="translate(-66.478)">
    <path id="Path_1451" data-name="Path 1451" d="M89.06,5.681a.456.456,0,0,0,.456-.456v-1.9a1.8,1.8,0,0,0-1.8-1.8H83.1V1.032A1.033,1.033,0,0,0,82.069,0H73.924a1.033,1.033,0,0,0-1.032,1.032v.491H68.277a1.8,1.8,0,0,0-1.8,1.8v26a1.8,1.8,0,0,0,1.8,1.8H87.716a1.8,1.8,0,0,0,1.8-1.8V7.048a.456.456,0,1,0-.912,0V29.319a.889.889,0,0,1-.888.888H68.277a.889.889,0,0,1-.888-.888v-26a.889.889,0,0,1,.888-.888h4.615v.74a1.033,1.033,0,0,0,1.032,1.032h8.145A1.033,1.033,0,0,0,83.1,3.175v-.74h4.615a.889.889,0,0,1,.888.888v1.9a.456.456,0,0,0,.456.456Zm-6.87-2.507a.12.12,0,0,1-.12.12H73.924a.12.12,0,0,1-.12-.12V1.032a.12.12,0,0,1,.12-.12h8.145a.12.12,0,0,1,.12.12Z" fill="#a8a8a8"/>
    <path id="Path_1452" data-name="Path 1452" d="M171.411,150.83H172.9a.718.718,0,0,0,.717-.717V149.2h.914a.718.718,0,0,0,.717-.717v-1.487a.718.718,0,0,0-.717-.717h-.914v-.914a.718.718,0,0,0-.717-.717h-1.487a.718.718,0,0,0-.717.717v.914h-.914a.718.718,0,0,0-.717.717v1.487a.718.718,0,0,0,.717.717h.914v.914a.718.718,0,0,0,.717.717Zm-1.437-2.543v-1.1h.914a.718.718,0,0,0,.717-.717v-.914h1.1v.914a.718.718,0,0,0,.717.717h.914v1.1h-.914a.718.718,0,0,0-.717.717v.914h-1.1V149a.718.718,0,0,0-.717-.717Z" transform="translate(-96.349 -135.855)" fill="#a8a8a8"/>
    <path id="Path_1453" data-name="Path 1453" d="M143.605,114.251A4.939,4.939,0,1,0,146,123.512a.456.456,0,1,0-.442-.8,4.028,4.028,0,1,1,2.078-3.524,3.989,3.989,0,0,1-.834,2.452.456.456,0,0,0,.723.556,4.893,4.893,0,0,0,1.023-3.008A4.945,4.945,0,0,0,143.605,114.251Z" transform="translate(-67.801 -107.307)" fill="#a8a8a8"/>
    <path id="Path_1454" data-name="Path 1454" d="M319.44,139.656h2.253a.456.456,0,0,0,0-.912H319.44a.456.456,0,0,0,0,.912Z" transform="translate(-237.159 -130.311)" fill="#a8a8a8"/>
    <path id="Path_1455" data-name="Path 1455" d="M319.44,174.262h2.253a.456.456,0,0,0,0-.912H319.44a.456.456,0,0,0,0,.912Z" transform="translate(-237.159 -162.814)" fill="#a8a8a8"/>
    <path id="Path_1456" data-name="Path 1456" d="M319.44,208.866h2.253a.456.456,0,1,0,0-.912H319.44a.456.456,0,0,0,0,.912Z" transform="translate(-237.159 -195.315)" fill="#a8a8a8"/>
    <path id="Path_1457" data-name="Path 1457" d="M319.44,243.472h2.253a.456.456,0,1,0,0-.912H319.44a.456.456,0,0,0,0,.912Z" transform="translate(-237.159 -227.818)" fill="#a8a8a8"/>
    <path id="Path_1458" data-name="Path 1458" d="M278.984,277.621a.456.456,0,0,0,.456.456h4.684a.456.456,0,1,0,0-.912H279.44A.456.456,0,0,0,278.984,277.621Z" transform="translate(-199.59 -260.32)" fill="#a8a8a8"/>
    <path id="Path_1459" data-name="Path 1459" d="M321.692,311.771H319.44a.456.456,0,0,0,0,.912h2.253a.456.456,0,0,0,0-.912Z" transform="translate(-237.159 -292.822)" fill="#a8a8a8"/>
    <path id="Path_1460" data-name="Path 1460" d="M218.5,312.227a.456.456,0,0,0,.456.456h4.076a.456.456,0,1,0,0-.912h-4.076A.456.456,0,0,0,218.5,312.227Z" transform="translate(-142.782 -292.822)" fill="#a8a8a8"/>
    <path id="Path_1461" data-name="Path 1461" d="M139.122,312.683h2.821a.456.456,0,1,0,0-.912h-2.821a.456.456,0,0,0,0,.912Z" transform="translate(-67.801 -292.822)" fill="#a8a8a8"/>
    <path id="Path_1462" data-name="Path 1462" d="M274.731,346.375H269.44a.456.456,0,0,0,0,.912h5.291a.456.456,0,0,0,0-.912Z" transform="translate(-190.198 -325.323)" fill="#a8a8a8"/>
    <path id="Path_1463" data-name="Path 1463" d="M139.122,347.287h5.86a.456.456,0,0,0,0-.912h-5.86a.456.456,0,0,0,0,.912Z" transform="translate(-67.801 -325.323)" fill="#a8a8a8"/>
    <path id="Path_1464" data-name="Path 1464" d="M274.731,380.98H269.44a.456.456,0,1,0,0,.912h5.291a.456.456,0,1,0,0-.912Z" transform="translate(-190.198 -357.825)" fill="#a8a8a8"/>
    <path id="Path_1465" data-name="Path 1465" d="M139.122,381.892h5.86a.456.456,0,1,0,0-.912h-5.86a.456.456,0,1,0,0,.912Z" transform="translate(-67.801 -357.825)" fill="#a8a8a8"/>
    <path id="Path_1466" data-name="Path 1466" d="M139.122,416.5h13.212a.456.456,0,1,0,0-.912H139.122a.456.456,0,1,0,0,.912Z" transform="translate(-67.801 -390.328)" fill="#a8a8a8"/>
    <path id="Path_1467" data-name="Path 1467" d="M221.681,27.1h-3.774a.456.456,0,0,0,0,.912h3.774a.456.456,0,0,0,0-.912Z" transform="translate(-141.797 -25.457)" fill="#a8a8a8"/>
    <path id="Path_1468" data-name="Path 1468" d="M112.062,106.255H123.57a1.083,1.083,0,0,0,1.082-1.082v-21.5a1.083,1.083,0,0,0-1.082-1.082H107.559a1.083,1.083,0,0,0-1.082,1.082v21.5a1.083,1.083,0,0,0,1.082,1.082h2.68a.456.456,0,1,0,0-.912h-2.68a.171.171,0,0,1-.17-.17v-21.5a.171.171,0,0,1,.17-.17H123.57a.171.171,0,0,1,.17.17v21.5a.171.171,0,0,1-.17.17H112.062a.456.456,0,1,0,0,.912Z" transform="translate(-37.568 -77.568)" fill="#a8a8a8"/>
  </g>
</svg>
