<svg xmlns="http://www.w3.org/2000/svg" xmlns:xlink="http://www.w3.org/1999/xlink" width="210.539" height="224.386" viewBox="0 0 210.539 224.386">
  <defs>
    <clipPath id="clip-path">
      <rect id="Rectangle_14" data-name="Rectangle 14" width="126.672" height="162.456" fill="none"/>
    </clipPath>
    <clipPath id="clip-path-2">
      <path id="Path_195" data-name="Path 195" d="M216.674,216.431a29.609,29.609,0,0,1,2.452-8.071c1.633-3.365,4.467-5.923,8.291-6.223,3.256-.255,6.518-.389,9.781-.5a57.582,57.582,0,0,1,9.08-.068,17.4,17.4,0,0,1,8.618,3.474c2.561,2.028,3,5.009,3.213,8.1,1.267,15.2,2.2,30.412,3.925,45.574.683,5.993,4.325,38.983,4.364,43.416-8.648,3.7-18.346,3.934-27.749,3.687-8.136-.214-16.415-.777-24.007-3.709-.005-14.231.772-28.423.768-42.645,0-7.355-.043-14.709.067-22.063C215.582,230.429,215.569,223.337,216.674,216.431Z" transform="translate(-214.643 -201.394)" fill="#fff"/>
    </clipPath>
    <clipPath id="clip-path-3">
      <rect id="Rectangle_19" data-name="Rectangle 19" width="92.546" height="162.456" rx="15" fill="none"/>
    </clipPath>
  </defs>
  <g id="rendez_vous" transform="translate(-74.434 -51.376)">
    <g id="Group_273" data-name="Group 273" transform="translate(111.218 76.596)">
      <rect id="Rectangle_10" data-name="Rectangle 10" width="105.259" height="199.166" rx="15" transform="translate(22.445 0)" fill="#282d3a"/>
      <rect id="Rectangle_11" data-name="Rectangle 11" width="105.259" height="199.166" rx="15" transform="translate(18.317 0)" fill="#343a4a"/>
      <rect id="Rectangle_12" data-name="Rectangle 12" width="92.546" height="162.456" rx="15" transform="translate(24.674 12.028)" fill="#b1daeb"/>
      <path id="Path_185" data-name="Path 185" d="M255.154,102.415h-26.48a1.379,1.379,0,0,1-1.379-1.379h0a1.379,1.379,0,0,1,1.379-1.379h26.48a1.379,1.379,0,0,1,1.379,1.379h0A1.379,1.379,0,0,1,255.154,102.415Z" transform="translate(-170.968 -95.468)" fill="#343a4a" opacity="0.5" style="mix-blend-mode: multiply;isolation: isolate"/>
      <g id="Group_262" data-name="Group 262" transform="translate(0 12.028)">
        <g id="Group_261" data-name="Group 261" clip-path="url(#clip-path)">
          <g id="Group_260" data-name="Group 260" transform="translate(7.332 7.032)">
            <path id="Path_186" data-name="Path 186" d="M228.065,446.591a26.577,26.577,0,0,0-4.407,2.174c-1.238.881-2.883,3.018-2.118,4.671.706,1.525,2.887,1.3,4.378,1.457a32.291,32.291,0,0,0,14.964-1.85c.024-3.252.064-5.283-1.262-8.432-.365-.869-.6-3.666-1.585-3.971a1.337,1.337,0,0,0-.591,0c-3.765.577-4.124,2.056-6.8,4.383A10.633,10.633,0,0,1,228.065,446.591Z" transform="translate(-175.974 -247.797)" fill="#231f20"/>
            <path id="Path_187" data-name="Path 187" d="M263.448,446.591a26.578,26.578,0,0,0-4.407,2.174c-1.238.881-2.883,3.018-2.118,4.671.706,1.525,2.887,1.3,4.378,1.457a32.291,32.291,0,0,0,14.964-1.85c.024-3.252.064-5.283-1.262-8.432-.365-.869-.6-3.666-1.585-3.971a1.337,1.337,0,0,0-.591,0c-3.765.577-4.124,2.056-6.8,4.383A10.634,10.634,0,0,1,263.448,446.591Z" transform="translate(-189.805 -247.797)" fill="#231f20"/>
            <path id="Path_188" data-name="Path 188" d="M153.512,225.428a21.611,21.611,0,0,0,2.085,1.143,21.189,21.189,0,0,1,2.141,1.077,32.054,32.054,0,0,1,2.806,2.28.465.465,0,0,0,.266.129.457.457,0,0,0,.269-.116,5.881,5.881,0,0,0,1.892-2.387.885.885,0,0,0,.1-.419,1.038,1.038,0,0,0-.211-.46c-1.043-1.59-1.254-3.75-1.869-5.539a18.186,18.186,0,0,1-.908-4.2,3.657,3.657,0,0,0-.667-2.231.65.65,0,0,0-.568-.251.685.685,0,0,0-.258.13c-1.074.783-1.156,2.81-1.2,4.043a32.034,32.034,0,0,0-3.773-5.809c-.5-.663-1.21-1.405-2.017-1.2a2.635,2.635,0,0,0,.333,2.267l1.693,3.493a17.134,17.134,0,0,0-3.476-4.723,1.118,1.118,0,0,0-.9-.425.781.781,0,0,0-.545.834,2.273,2.273,0,0,0,.4,1l2.362,3.917a14.036,14.036,0,0,0-2.65-2.747,1.048,1.048,0,0,0-.985-.307.725.725,0,0,0-.367.781,2.029,2.029,0,0,0,.4.828,30.641,30.641,0,0,0,2.608,3.234,4.231,4.231,0,0,0-2.506-1.861,1.074,1.074,0,0,0-.673-.01.833.833,0,0,0-.4.97,6.943,6.943,0,0,0,1.513,2.178,21.994,21.994,0,0,0,5.112,4.389Z" transform="translate(-146.86 -158.274)" fill="#fac39a"/>
            <path id="Path_189" data-name="Path 189" d="M194.4,214.595c-.168.5-.328,1-.482,1.5a39.42,39.42,0,0,1-3.347,8.374,10.186,10.186,0,0,1-4.434,4.412,7.712,7.712,0,0,1-6.772-.565,19.5,19.5,0,0,1-5.788-5.547c-3.117-4.328-7.163-.351-9.7,2.718a4.829,4.829,0,0,0-1.181,2.187c-.513,3.069,3.348,6.912,5.257,8.987,4.672,5.079,11.921,9.694,19.1,8.947,7.863-.818,13.1-9.763,15.6-16.445a41.417,41.417,0,0,0,2.226-21.366c-.375-2.182-2.09-2.633-4.057-1.982a6.037,6.037,0,0,0-2.18,1.383A17.341,17.341,0,0,0,194.4,214.595Z" transform="translate(-153.029 -155.916)" fill="#ebf3f7"/>
            <path id="Path_190" data-name="Path 190" d="M240.359,401.625c.323,0,.847-63.192,1.086-68.673q-6.422-.2-12.834-.641c-4.273-.294-8.3-2.162-9.029,3.142-.337,2.45.938,4.211,1.476,6.5.829,3.523.746,7.387,1.043,10.987q2.022,24.429,4.861,48.781Z" transform="translate(-175.264 -205.249)" fill="#343a4a"/>
            <path id="Path_191" data-name="Path 191" d="M221.362,142.978c-.267,6.366,1.744,13.27,7.6,16.567a20.871,20.871,0,0,0,4.47,1.771,25.031,25.031,0,0,0,9.583,1.092,13.826,13.826,0,0,0,8.617-4.01,18.829,18.829,0,0,0,3.052-4.783,59.463,59.463,0,0,0,3.628-9.48c.478-1.661.747-3.773-.624-4.825a7.2,7.2,0,0,1-1.058-.753,2.575,2.575,0,0,1-.487-.993,17.62,17.62,0,0,0-1.6-4.42c-1.226-1.916-3.414-2.949-5.494-3.868-1.946-.859-3.362-1.477-5.481-1.144a28.816,28.816,0,0,0-5.446,1.413c-2.12.778-4.106,2.017-6.315,2.532-2.409.561-6.139-.1-7.711,2.159A16.9,16.9,0,0,0,221.362,142.978Z" transform="translate(-175.972 -125.623)" fill="#343a4a"/>
            <path id="Path_192" data-name="Path 192" d="M274.188,401.7c.322-.016-2.017-63.165-2.026-68.652q-6.425.093-12.849-.059c-4.282-.1-8.387-1.784-8.877,3.547-.226,2.463,1.127,4.165,1.769,6.424.987,3.482,1.079,7.345,1.54,10.929q3.126,24.312,7.066,48.51Z" transform="translate(-187.335 -205.602)" fill="#343a4a"/>
            <rect id="Rectangle_13" data-name="Rectangle 13" width="11.923" height="14.44" transform="translate(57.301 35.291)" fill="#f99d6e"/>
            <g id="Group_250" data-name="Group 250" transform="translate(41.288 47.1)">
              <path id="Path_193" data-name="Path 193" d="M216.674,216.431a29.609,29.609,0,0,1,2.452-8.071c1.633-3.365,4.467-5.923,8.291-6.223,3.256-.255,6.518-.389,9.781-.5a57.582,57.582,0,0,1,9.08-.068,17.4,17.4,0,0,1,8.618,3.474c2.561,2.028,3,5.009,3.213,8.1,1.267,15.2,2.2,30.412,3.925,45.574.683,5.993,4.325,38.983,4.364,43.416-8.648,3.7-18.346,3.934-27.749,3.687-8.136-.214-16.415-.777-24.007-3.709-.005-14.231.772-28.423.768-42.645,0-7.355-.043-14.709.067-22.063C215.582,230.429,215.569,223.337,216.674,216.431Z" transform="translate(-214.643 -201.394)" fill="#fff"/>
              <g id="Group_249" data-name="Group 249" clip-path="url(#clip-path-2)">
                <path id="Path_194" data-name="Path 194" d="M242,239.147l-8.56-45.287h19.269Z" transform="translate(-221.991 -198.449)" fill="#acd4ea"/>
              </g>
            </g>
            <ellipse id="Ellipse_6" data-name="Ellipse 6" cx="17.776" cy="13.701" rx="17.776" ry="13.701" transform="matrix(0.056, -0.998, 0.998, 0.056, 45.926, 40.779)" fill="#fac39a"/>
            <path id="Path_196" data-name="Path 196" d="M284.652,289.852c-.366-.418-2.613-3.248-3.275-2.952a.944.944,0,0,0-.365.4c-1.2,1.911-3.471,2.776-5.443,3.867a.564.564,0,0,0-.252.217.507.507,0,0,0,0,.351,4.559,4.559,0,0,0,1.193,1.824,35.979,35.979,0,0,0,4.269,4.029,1.688,1.688,0,0,0,.777.418c.771.107,1.249-.8,1.486-1.539l1.778-5.551a1.157,1.157,0,0,0,.069-.713A1.1,1.1,0,0,0,284.652,289.852Z" transform="translate(-197.058 -187.708)" fill="#fac39a"/>
            <path id="Path_197" data-name="Path 197" d="M251.252,152.122c2.042-6.284,1.8-12.2,1.2-18.66-.166-1.787-1.119-2.778-2.371-4.073a11.314,11.314,0,0,0-3.173-2.572c-3.538-1.657-7.808.637-11.583-.371-1.512-.4-2.839-1.315-4.31-1.852a9.367,9.367,0,0,0-9.783,2.315,4.638,4.638,0,0,0-.965,1.41,4.506,4.506,0,0,0,.32,3.547c1.378,2.918,3.722,3.527,6.415,4.628a19.655,19.655,0,0,0,7.04,1.059c2.6.034,5.045-.507,7.492.749.875.45,1.644,1.08,2.491,1.582a10.763,10.763,0,0,1,2.5,1.629,7.281,7.281,0,0,1,1.453,3.792q.66,3.542,1.632,7.016c.088.316.215.672.522.788C250.657,153.306,251.08,152.654,251.252,152.122Z" transform="translate(-175.459 -124.07)" fill="#343a4a"/>
            <path id="Path_198" data-name="Path 198" d="M282,236.168c-.563-5.889-4.183-9.868-6.282-15.162-1.98-4.994-3.508-10.753-2.36-16.13a1.094,1.094,0,0,1,.263-.6c.306-.286.8-.147,1.185.018a37.678,37.678,0,0,1,19.466,20.783,37.32,37.32,0,0,1,1.995,10.592,35.368,35.368,0,0,1-.712,10.384c-1.452,6.02-5.247,10.747-10.188,14.281a1.221,1.221,0,0,1-1.952,0q-2.642-2.587-5.068-5.383a2.949,2.949,0,0,1-.627-.953,3.213,3.213,0,0,1,.683-2.518A25.671,25.671,0,0,0,282,236.168Z" transform="translate(-196.15 -155.358)" fill="#ebf3f7"/>
            <path id="Path_199" data-name="Path 199" d="M270.232,165.489a3.33,3.33,0,0,1,.632,5.056,6.293,6.293,0,0,1-4.18,2.675c-1.255.192-3.077.085-3.347-1.473-.241-1.392.892-3.371,1.692-4.445C266.223,165.7,268.267,164.083,270.232,165.489Z" transform="translate(-192.375 -140.05)" fill="#fac39a"/>
            <path id="Path_200" data-name="Path 200" d="M240.618,200.518l3.882,5.22,8.219-5.839Z" transform="translate(-183.508 -153.71)" fill="#f99d6e"/>
            <path id="Path_201" data-name="Path 201" d="M247.809,240.615l7.045-16.061-2.033-3.477,3.352-.022,7.563-19.5-6.582-2.284Z" transform="translate(-186.319 -153.464)" fill="#ebf3f7"/>
            <path id="Path_202" data-name="Path 202" d="M246.991,204.921l8.233-7.11,4.474,1.669-9.016,9.94Z" transform="translate(-185.999 -152.894)" fill="#c7e8ff"/>
            <path id="Path_203" data-name="Path 203" d="M237.78,242.241l-6.893-16.708,2.033-3.477-3.352-.022-6.927-17.86,7.868-2.4Z" transform="translate(-176.481 -154.444)" fill="#ebf3f7"/>
            <path id="Path_204" data-name="Path 204" d="M237.616,199.27l3.691,6.221-4.347,4.5-4.512-8.617Z" transform="translate(-180.314 -153.464)" fill="#c7e8ff"/>
            <g id="Group_259" data-name="Group 259" transform="translate(47.547 18.739)">
              <g id="Group_257" data-name="Group 257">
                <g id="Group_253" data-name="Group 253" transform="translate(16.395 0.756)">
                  <g id="Group_252" data-name="Group 252">
                    <g id="Group_251" data-name="Group 251">
                      <path id="Path_205" data-name="Path 205" d="M251.835,156.776a2.1,2.1,0,0,1,1.179-.643,3.164,3.164,0,0,1,1.317.023,3.29,3.29,0,0,1,1.192.531,2.307,2.307,0,0,1,.836,1.037c-.47-.036-.849-.1-1.224-.161s-.723-.139-1.071-.219l-1.051-.256Z" transform="translate(-251.835 -156.075)" fill="#343a4a"/>
                    </g>
                  </g>
                </g>
                <path id="Path_206" data-name="Path 206" d="M257.915,170.012c-.04.872-1.256,1.523-2.716,1.456s-2.612-.828-2.572-1.7,1.256-1.523,2.717-1.456S257.955,169.141,257.915,170.012Z" transform="translate(-235.749 -160.101)" fill="#f78b7c"/>
                <path id="Path_207" data-name="Path 207" d="M252.089,162.361c-.041.987.429,1.812,1.049,1.844s1.157-.742,1.2-1.728-.429-1.812-1.05-1.844S252.13,161.375,252.089,162.361Z" transform="translate(-235.538 -157.1)" fill="#3d2217"/>
                <g id="Group_256" data-name="Group 256" transform="translate(1.117)">
                  <g id="Group_255" data-name="Group 255">
                    <g id="Group_254" data-name="Group 254">
                      <path id="Path_208" data-name="Path 208" d="M231.345,155.709l-1.2.2-1.07.158c-.355.048-.712.087-1.087.119s-.762.056-1.233.048a2.3,2.3,0,0,1,.927-.956,3.273,3.273,0,0,1,1.236-.42,3.159,3.159,0,0,1,1.313.1A2.1,2.1,0,0,1,231.345,155.709Z" transform="translate(-226.753 -154.834)" fill="#343a4a"/>
                    </g>
                  </g>
                </g>
                <path id="Path_209" data-name="Path 209" d="M224.92,168.334c-.04.871.929,1.623,2.164,1.681s2.269-.6,2.309-1.475-.929-1.624-2.164-1.681S224.96,167.462,224.92,168.334Z" transform="translate(-224.919 -159.533)" fill="#f78b7c"/>
                <path id="Path_210" data-name="Path 210" d="M231.995,161.157c-.041.986-.578,1.76-1.2,1.728s-1.09-.857-1.049-1.843.577-1.76,1.2-1.729S232.035,160.171,231.995,161.157Z" transform="translate(-226.805 -156.585)" fill="#3d2217"/>
                <path id="Path_211" data-name="Path 211" d="M242.893,171.82c-.026.4-.735.672-1.583.616s-1.514-.422-1.487-.819.735-.672,1.582-.616S242.918,171.423,242.893,171.82Z" transform="translate(-230.744 -161.151)" fill="#e59a7f"/>
              </g>
              <g id="Group_258" data-name="Group 258" transform="translate(5.54 13.456)">
                <path id="Path_212" data-name="Path 212" d="M239.57,181.629a5.28,5.28,0,0,1-5.513-4.392c-.008-.051-.015-.1-.023-.153s-.014-.107-.02-.16a13.88,13.88,0,0,0,5.322,1.057,12.066,12.066,0,0,0,5.185-.574,1.575,1.575,0,0,0-.091.354,5.328,5.328,0,0,1-1.408,2.513A5.226,5.226,0,0,1,239.57,181.629Z" transform="translate(-234.014 -176.924)" fill="#fff"/>
              </g>
            </g>
            <line id="Line_17" data-name="Line 17" x2="2.122" y2="79.546" transform="translate(60.953 71.913)" fill="none" stroke="#acd4ea" stroke-miterlimit="10" stroke-width="0.75"/>
            <path id="Path_213" data-name="Path 213" d="M273.52,289.2l9.689,10.376-4.115,3.318-7.7-10.3Z" transform="translate(-195.538 -188.615)" fill="#ebf3f7"/>
            <path id="Path_214" data-name="Path 214" d="M221.038,292.068l-4.28,8.86,3.185,2.389,4.778-9.954Z" transform="translate(-174.182 -189.737)" fill="#ebf3f7"/>
            <path id="Path_215" data-name="Path 215" d="M254.416,278.049a.852.852,0,1,1-.852-.853A.852.852,0,0,1,254.416,278.049Z" transform="translate(-188.235 -183.924)" fill="#ebf3f7"/>
            <path id="Path_216" data-name="Path 216" d="M254.416,302.154a.852.852,0,1,1-.852-.853A.852.852,0,0,1,254.416,302.154Z" transform="translate(-188.235 -193.346)" fill="#ebf3f7"/>
          </g>
        </g>
      </g>
      <g id="Group_271" data-name="Group 271" transform="translate(24.674 12.028)">
        <g id="Group_270" data-name="Group 270" clip-path="url(#clip-path-3)">
          <g id="Group_263" data-name="Group 263" transform="translate(-39.965 -9.625)">
            <rect id="Rectangle_15" data-name="Rectangle 15" width="25.541" height="200.756" transform="matrix(0.769, 0.639, -0.639, 0.769, 128.289, 0)" fill="#fff" opacity="0.2"/>
            <rect id="Rectangle_16" data-name="Rectangle 16" width="25.541" height="200.756" transform="matrix(0.769, 0.639, -0.639, 0.769, 152.54, 24.251)" fill="#fff" opacity="0.2"/>
          </g>
          <rect id="Rectangle_17" data-name="Rectangle 17" width="122.028" height="33.022" transform="translate(-15.902 133.218)" fill="#231f20" opacity="0.3"/>
          <circle id="Ellipse_7" data-name="Ellipse 7" cx="10.362" cy="10.362" r="10.362" transform="translate(35.91 137.002)" fill="#d8555f"/>
          <g id="Group_267" data-name="Group 267" transform="translate(39.849 143.193)">
            <g id="Group_264" data-name="Group 264" transform="translate(8.366 2.622)">
              <path id="Path_217" data-name="Path 217" d="M254.485,354.581s.339-2.035,1.532-2.488c2.228-.845,3.6,1.4,2.633,3.632A6.12,6.12,0,0,1,254.485,354.581Z" transform="translate(-254.485 -351.911)" fill="#fff"/>
            </g>
            <g id="Group_265" data-name="Group 265" transform="translate(0 2.626)">
              <path id="Path_218" data-name="Path 218" d="M245.244,354.477s-.43-2.018-1.642-2.417c-2.264-.745-3.537,1.562-2.468,3.746A6.117,6.117,0,0,0,245.244,354.477Z" transform="translate(-240.75 -351.918)" fill="#fff"/>
            </g>
            <g id="Group_266" data-name="Group 266" transform="translate(0.975)">
              <path id="Path_219" data-name="Path 219" d="M244.037,351.683l-1.687-1.037a5.99,5.99,0,0,1,5.393-3.04,5.546,5.546,0,0,1,5.464,2.994l-1.707,1a3.646,3.646,0,0,0-3.758-2.018A4.023,4.023,0,0,0,244.037,351.683Z" transform="translate(-242.35 -347.607)" fill="#fff"/>
            </g>
          </g>
          <g id="Group_268" data-name="Group 268" transform="translate(70.266 144.311)">
            <rect id="Rectangle_18" data-name="Rectangle 18" width="6.192" height="6.192" rx="2" transform="translate(0 0)" fill="#fff"/>
            <path id="Path_220" data-name="Path 220" d="M303.259,355.264l-2.515-.516v-3.1l2.515-.516Z" transform="translate(-294.617 -350.104)" fill="#fff"/>
          </g>
          <g id="Group_269" data-name="Group 269" transform="translate(14.006 140.441)">
            <path id="Path_221" data-name="Path 221" d="M202.747,351.251h0a2.558,2.558,0,0,1-2.558-2.558v-3.046a2.558,2.558,0,0,1,2.558-2.558h0a2.558,2.558,0,0,1,2.558,2.558v3.046A2.558,2.558,0,0,1,202.747,351.251Z" transform="translate(-199.052 -343.089)" fill="#fff"/>
            <path id="Path_222" data-name="Path 222" d="M205.713,352.929a3.695,3.695,0,0,1-7.39,0" transform="translate(-198.323 -346.935)" fill="none" stroke="#fff" stroke-miterlimit="10" stroke-width="0.75"/>
            <line id="Line_18" data-name="Line 18" y2="2.372" transform="translate(3.695 9.689)" fill="none" stroke="#fff" stroke-miterlimit="10" stroke-width="0.75"/>
          </g>
        </g>
      </g>
      <g id="Group_272" data-name="Group 272" transform="translate(100.357 14.016)">
        <rect id="Rectangle_20" data-name="Rectangle 20" width="72.236" height="41.278" rx="10" fill="#00bdd7"/>
        <path id="Path_223" data-name="Path 223" d="M366.657,132.43h-46.67a2.261,2.261,0,0,1-2.461-1.985h0a2.262,2.262,0,0,1,2.461-1.985h46.67a2.262,2.262,0,0,1,2.461,1.985h0A2.261,2.261,0,0,1,366.657,132.43Z" transform="translate(-306.594 -120.742)" fill="#ebf3f7"/>
        <path id="Path_224" data-name="Path 224" d="M367.133,149.513H319.511a1.985,1.985,0,0,1-1.985-1.985h0a1.985,1.985,0,0,1,1.985-1.985h47.622a1.985,1.985,0,0,1,1.985,1.985h0A1.985,1.985,0,0,1,367.133,149.513Z" transform="translate(-306.594 -127.419)" fill="#ebf3f7"/>
        <path id="Path_225" data-name="Path 225" d="M351.892,166.6H319.987a2.262,2.262,0,0,1-2.461-1.985h0a2.262,2.262,0,0,1,2.461-1.985h31.905a2.261,2.261,0,0,1,2.46,1.985h0A2.261,2.261,0,0,1,351.892,166.6Z" transform="translate(-306.594 -134.097)" fill="#ebf3f7"/>
        <path id="Path_226" data-name="Path 226" d="M310.874,180.732v12.211L327.9,181.764Z" transform="translate(-303.994 -141.174)" fill="#00bdd7"/>
      </g>
      <circle id="Ellipse_8" data-name="Ellipse 8" cx="7.413" cy="7.413" r="7.413" transform="translate(63.554 179.459)" fill="#343a4a" opacity="0.5" style="mix-blend-mode: multiply;isolation: isolate"/>
    </g>
    <g id="Group_281" data-name="Group 281" transform="translate(74.434 51.376)" opacity="0.75">
      <g id="Group_274" data-name="Group 274" transform="translate(0 0.927)">
        <rect id="Rectangle_21" data-name="Rectangle 21" width="49.829" height="28.474" rx="10" transform="translate(49.829 28.474) rotate(180)" fill="#92d4d6"/>
        <path id="Path_227" data-name="Path 227" d="M140.911,97.7v8.424l-11.746-7.712Z" transform="translate(-95.827 -70.409)" fill="#92d4d6"/>
        <circle id="Ellipse_9" data-name="Ellipse 9" cx="3.065" cy="3.065" r="3.065" transform="translate(9.318 10.435)" fill="#ebf3f7"/>
        <circle id="Ellipse_10" data-name="Ellipse 10" cx="3.065" cy="3.065" r="3.065" transform="translate(21.013 10.435)" fill="#ebf3f7"/>
        <path id="Path_228" data-name="Path 228" d="M134.264,73.1A3.065,3.065,0,1,1,131.2,70.03,3.065,3.065,0,0,1,134.264,73.1Z" transform="translate(-95.424 -59.595)" fill="#ebf3f7"/>
      </g>
      <g id="Group_276" data-name="Group 276" transform="translate(2.64 52.293)">
        <circle id="Ellipse_11" data-name="Ellipse 11" cx="13.873" cy="13.873" r="13.873" transform="matrix(0.23, -0.973, 0.973, 0.23, 0, 27.004)" fill="#92d4d6"/>
        <g id="Group_275" data-name="Group 275" transform="translate(12.652 10.077)">
          <path id="Path_229" data-name="Path 229" d="M101.9,162.511v-.648a2.873,2.873,0,0,1,.359-1.462,4.711,4.711,0,0,1,1.314-1.323,5.463,5.463,0,0,0,1.213-1.068,1.546,1.546,0,0,0,.294-.919,1,1,0,0,0-.42-.867,2.005,2.005,0,0,0-1.174-.3,6.739,6.739,0,0,0-3,.858l-.955-1.918a8.347,8.347,0,0,1,4.143-1.095,4.408,4.408,0,0,1,2.868.867,2.833,2.833,0,0,1,1.064,2.312,3.075,3.075,0,0,1-.438,1.664,6.261,6.261,0,0,1-1.664,1.577,5.121,5.121,0,0,0-1.064.945,1.467,1.467,0,0,0-.224.85v.526Zm-.28,3a1.468,1.468,0,0,1,.394-1.112,1.6,1.6,0,0,1,1.147-.376,1.552,1.552,0,0,1,1.126.386,1.7,1.7,0,0,1,0,2.194,1.53,1.53,0,0,1-1.121.4,1.572,1.572,0,0,1-1.138-.39A1.458,1.458,0,0,1,101.624,165.506Z" transform="translate(-99.539 -153.77)" fill="#ebf3f7"/>
        </g>
      </g>
      <g id="Group_278" data-name="Group 278" transform="translate(193.692 98.292)">
        <circle id="Ellipse_12" data-name="Ellipse 12" cx="8.423" cy="8.423" r="8.423" fill="#92d4d6"/>
        <g id="Group_277" data-name="Group 277" transform="translate(5.972 4.408)">
          <path id="Path_230" data-name="Path 230" d="M403.66,225.287v-.393a1.742,1.742,0,0,1,.218-.888,2.85,2.85,0,0,1,.8-.8,3.355,3.355,0,0,0,.736-.649.94.94,0,0,0,.178-.559.605.605,0,0,0-.255-.526,1.218,1.218,0,0,0-.713-.181,4.1,4.1,0,0,0-1.819.521l-.579-1.165a5.067,5.067,0,0,1,2.515-.665,2.676,2.676,0,0,1,1.741.526,1.721,1.721,0,0,1,.646,1.4,1.869,1.869,0,0,1-.266,1.011,3.79,3.79,0,0,1-1.01.957,3.129,3.129,0,0,0-.646.574.89.89,0,0,0-.136.516v.319Zm-.171,1.819a.891.891,0,0,1,.239-.676.971.971,0,0,1,.7-.229.944.944,0,0,1,.683.235,1.033,1.033,0,0,1,0,1.332.927.927,0,0,1-.68.242.954.954,0,0,1-.691-.237A.885.885,0,0,1,403.489,227.106Z" transform="translate(-402.224 -219.98)" fill="#ebf3f7"/>
        </g>
      </g>
      <g id="Group_280" data-name="Group 280" transform="translate(101.779)">
        <circle id="Ellipse_13" data-name="Ellipse 13" cx="8.423" cy="8.423" r="8.423" fill="#92d4d6"/>
        <g id="Group_279" data-name="Group 279" transform="translate(5.972 4.409)">
          <path id="Path_231" data-name="Path 231" d="M252.766,63.921v-.393a1.745,1.745,0,0,1,.218-.888,2.853,2.853,0,0,1,.8-.8,3.338,3.338,0,0,0,.736-.649.942.942,0,0,0,.178-.559.605.605,0,0,0-.255-.526,1.217,1.217,0,0,0-.713-.181,4.1,4.1,0,0,0-1.819.521l-.579-1.165a5.069,5.069,0,0,1,2.515-.665,2.676,2.676,0,0,1,1.741.526,1.719,1.719,0,0,1,.646,1.4,1.87,1.87,0,0,1-.266,1.01,3.8,3.8,0,0,1-1.011.958,3.111,3.111,0,0,0-.646.574.892.892,0,0,0-.135.516v.319Zm-.17,1.819a.892.892,0,0,1,.239-.676.97.97,0,0,1,.7-.228.943.943,0,0,1,.683.234,1.034,1.034,0,0,1,0,1.332.927.927,0,0,1-.681.242.954.954,0,0,1-.691-.236A.885.885,0,0,1,252.6,65.74Z" transform="translate(-251.33 -58.614)" fill="#ebf3f7"/>
        </g>
      </g>
    </g>
  </g>
</svg>
